<svg width="52" height="50" viewBox="0 0 52 50" fill="none" xmlns="http://www.w3.org/2000/svg">
<path d="M26.1337 18.6306C23.0723 21.6832 23.0723 26.652 26.1337 29.7046C27.6164 31.1831 29.5894 31.9984 31.6875 31.9984C33.7856 31.9984 35.7569 31.1831 37.2413 29.7046C40.3027 26.652 40.3027 21.6832 37.2413 18.6306C35.7586 17.1521 33.7856 16.3368 31.6875 16.3368C29.5894 16.3368 27.6181 17.1521 26.1337 18.6306ZM36.0277 28.4962C34.8689 29.6517 33.3262 30.2892 31.6875 30.2892C30.0488 30.2892 28.5061 29.6517 27.3473 28.4962C24.9544 26.1101 24.9544 22.2251 27.3473 19.839C28.5061 18.6836 30.0488 18.046 31.6875 18.046C33.3262 18.046 34.8689 18.6836 36.0277 19.839C38.4206 22.2251 38.4206 26.1101 36.0277 28.4962ZM51.5132 39.4387L44.0756 32.0224C43.7619 31.7096 43.3453 31.5369 42.9014 31.5369C42.5465 31.5369 42.2089 31.6497 41.9277 31.8531L40.3765 30.3063C43.3248 26.1614 42.9408 20.3671 39.2194 16.6564C38.3966 15.836 37.471 15.1813 36.4837 14.6857V2.06816C36.4837 0.92811 35.5529 0 34.4095 0H4.90585C2.20095 0 0 2.19465 0 4.89181V45.0467L0.0565665 44.9903C0.0994198 45.2962 0.164557 45.5953 0.258834 45.8859L0.234837 45.9115L0.682226 46.9678H0.716508C1.2496 47.9438 2.06382 48.7574 3.0443 49.289V49.3317L3.57397 49.5505L4.11392 49.759L4.12935 49.7436C4.66588 49.9145 5.23668 50.0017 5.82463 50.0017H34.4095C35.5529 50.0017 36.4837 49.0736 36.4837 47.9335V33.6547C36.9568 33.4171 37.411 33.1419 37.8464 32.8342L39.396 34.3794C38.9263 35.0272 38.9811 35.9382 39.5657 36.521L47.0033 43.9374C47.317 44.2502 47.7335 44.4228 48.1775 44.4228C48.6214 44.4228 49.038 44.2502 49.3517 43.9374L51.5132 41.782C51.8269 41.4693 52 41.0539 52 40.6112C52 40.1685 51.8269 39.7532 51.5132 39.4404V39.4387ZM38.0075 30.4687C36.3191 32.1523 34.0753 33.0787 31.6875 33.0787C29.2997 33.0787 27.0559 32.1523 25.3675 30.4687C21.8826 26.9938 21.8826 21.3397 25.3675 17.8648C27.109 16.1266 29.3991 15.2583 31.6875 15.2583C33.9759 15.2583 36.2642 16.1266 38.0075 17.8648C41.4924 21.3397 41.4924 26.9938 38.0075 30.4687ZM18.6789 1.70923V9.18367L16.4917 7.0027C16.3306 6.84203 16.1129 6.75315 15.8849 6.75315H15.8797C15.6501 6.75315 15.4324 6.84716 15.2712 7.01125L13.18 9.14949V1.70923H18.6789ZM4.90585 1.70923H8.07186V38.3841H5.82463C4.28877 38.3841 2.83175 38.9806 1.71414 40.0745V4.89181C1.71414 3.13643 3.14544 1.70923 4.90585 1.70923ZM34.4815 48.2822C34.4575 48.2874 34.4335 48.2891 34.4095 48.2891H5.82463C5.4081 48.2891 5.0087 48.2275 4.64359 48.1096C4.52532 48.0703 4.38647 48.0173 4.24248 47.9575L4.10021 47.8994C3.22429 47.4891 2.52835 46.7969 2.11353 45.9252L2.04839 45.768C1.9884 45.6244 1.93526 45.4859 1.89926 45.3748C1.77927 45.0039 1.71756 44.6057 1.71756 44.1903V44.1613C1.72785 43.0845 2.15638 42.0624 2.91574 41.2949C3.70425 40.5189 4.73787 40.0916 5.82806 40.0916H34.7112C34.7472 40.0916 34.7729 40.1173 34.7729 40.1531V43.3477H7.91073C7.43763 43.3477 7.05367 43.7306 7.05367 44.2023C7.05367 44.6741 7.43763 45.0569 7.91073 45.0569H34.7695V47.9284C34.7695 48.1011 34.6461 48.2463 34.4815 48.2805V48.2822ZM34.7695 38.3875C34.7489 38.3875 34.7284 38.3841 34.7078 38.3841H9.786V1.70923H11.4658V11.2484C11.4658 11.5954 11.6767 11.9082 11.9989 12.0398C12.1035 12.0825 12.2132 12.103 12.3212 12.103C12.5475 12.103 12.7703 12.0142 12.9349 11.8449L15.8917 8.82474L18.9292 11.8535C19.1743 12.0979 19.5429 12.1714 19.8634 12.0381C20.1839 11.9065 20.3931 11.5937 20.3931 11.2484V1.70923H34.4095C34.6084 1.70923 34.7695 1.86989 34.7695 2.06816V14.0037C31.1321 12.9132 27.0233 13.7969 24.1556 16.6581C20.0022 20.7996 20.0022 27.5373 24.1556 31.6788C26.168 33.6854 28.842 34.7896 31.6875 34.7896C32.7468 34.7896 33.7839 34.6358 34.7695 34.3401V38.3892V38.3875ZM39.2725 31.6241L40.6987 33.0462L40.5924 33.1522L39.1663 31.7301L39.2725 31.6241ZM48.1775 42.6896L40.8153 35.3485L41.8575 34.3093L42.8997 33.2701L50.2619 40.6112L48.1758 42.6914L48.1775 42.6896Z" fill="#5D65B0"/>
</svg>
