<?xml version="1.0" encoding="UTF-8"?>
<svg id="Layer_1" xmlns="http://www.w3.org/2000/svg" version="1.1" viewBox="0 0 55.36 52">
  <!-- Generator: Adobe Illustrator 30.6.0, SVG Export Plug-In . SVG Version: 2.1.4 Build 109)  -->
  <defs>
    <style>
      .st0 {
        fill: #5d65b0;
      }
    </style>
  </defs>
  <path class="st0" d="M53.99,12.84c-1.81-1.81-4.7-1.81-6.51,0l-1.63,1.63-4.07,4.07v-9.86h4.97c2.8,0,4.25-2.17,4.34-4.25.09-2.08-1.27-4.25-3.98-4.43-.18,0,1.36,0-36.72,0-2.53,0-4.52,1.99-4.52,4.52v38.89H1.18c-.63,0-1.18.54-1.18,1.18,0,4.61,3.07,7.42,7.05,7.42,29.3,0,27.85,0,27.85,0,3.8-.27,6.87-3.07,6.96-7.33v-12.93l10.58-10.58,1.63-1.63c1.72-1.9,1.72-4.88-.09-6.69h0ZM47.48,17.82l-12.21,12.21c-.45.45-.45,1.17,0,1.63s1.18.45,1.63,0l12.21-12.21.81.81-14.65,14.65-3.25-3.26,9.5-9.5,5.16-5.15.81.81h0ZM30.75,33.73l2.44,2.44-4.07,1.54,1.63-3.98ZM48.74,4.34c0,.9-.54,1.99-2.08,1.99h-4.79c.45-1.9,1.99-3.44,3.62-3.89.36-.09.9-.18,1.27-.18,1.54.18,2.08,1.18,1.99,2.08ZM2.35,45.67h24.42c.18,1.54.81,2.8,1.81,3.89H6.96c-2.44.09-4.16-1.45-4.61-3.89h0ZM39.52,44.58c-.09,3.44-2.62,4.88-4.79,5.06h-1.17c-2.26-.27-4.61-1.72-4.61-5.06,0-.63-.54-1.18-1.17-1.18H8.14V4.52c0-1.27.99-2.17,2.26-2.17h31.2c-1.36,1.45-2.08,3.26-2.08,5.25v13.29c-10.4,10.49-10.04,9.95-10.22,10.31l-3.07,7.69c-2.44.9-3.98-.27-3.98-.27-.09,0-.09-.09-.18-.09-4.43-2.44-7.41,0-7.51.18-.45.45-.54,1.17-.18,1.63.45.45,1.17.54,1.63.18,0,0,1.81-1.54,4.79.09.36.27,1.63,1.09,3.53,1.09.81,0,1.81-.18,2.8-.54.27,0-.09.09,8.5-3.35.36-.18.27-.18,3.8-3.71l.09,10.49h0ZM52.36,17.82l-.81.81-3.26-3.26.81-.81c.91-.91,2.35-.91,3.26,0,.9.9.9,2.35,0,3.26ZM10.58,10.76c-.45-.45-.36-1.18.09-1.63.09-.09,3.07-2.53,7.51-.09.06,0,.12.03.18.09,0,.09,1.81,1.45,4.79-.09.63-.45,3.44-2.17,7.41,0,.06,0,.12.03.18.09.09.09,1.9,1.54,4.88-.09.54-.36,1.27-.09,1.54.45.27.54.09,1.27-.45,1.54-1.45.81-2.71,1.09-3.8,1.09-1.9,0-3.16-.81-3.53-1.09-2.89-1.54-4.79-.18-4.79-.09s-.09.18-.18.18c-1.45.81-2.71,1.09-3.8,1.09-1.9,0-3.16-.81-3.53-1.09-2.98-1.63-4.79-.09-4.79-.09-.54.45-1.27.36-1.72-.27h0ZM29.48,15.74c.36.27,1.63,1.09,3.53,1.09,1.09,0,2.35-.27,3.8-1.09.54-.27.72-.99.45-1.54-.27-.54-.99-.81-1.54-.45-2.98,1.63-4.79.18-4.88.09-.09,0-.09-.09-.18-.09-3.98-2.17-6.78-.45-7.42,0-2.98,1.54-4.79.18-4.79.09-.09,0-.09-.09-.18-.09-4.43-2.44-7.41,0-7.51.09l1.54,1.72c.09-.09,1.9-1.45,4.88.09.36.27,1.63,1.09,3.53,1.09,1.08,0,2.35-.27,3.8-1.09.09,0,.18-.09.18-.09.09,0,1.9-1.36,4.79.18h0ZM12.3,20.26s1.81-1.54,4.79.09c.36.27,1.63,1.09,3.53,1.09,1.09,0,2.35-.27,3.8-1.09.09,0,.18-.09.18-.18.09,0,1.9-1.45,4.79.09.36.27,1.63,1.09,3.53,1.09,1.09,0,2.35-.27,3.8-1.09.54-.27.72-.99.45-1.54-.27-.54-.99-.81-1.54-.45-2.98,1.63-4.79.18-4.88.09-.09,0-.09-.09-.18-.09-3.98-2.17-6.78-.45-7.41,0-2.98,1.54-4.79.18-4.79.09-.09,0-.09-.09-.18-.09-4.43-2.44-7.41,0-7.51.09-.45.45-.54,1.18-.09,1.63.45.63,1.18.63,1.72.27h0ZM30.66,22.97c-3.98-2.17-6.78-.45-7.42,0-2.98,1.54-4.79.18-4.79.09-.09,0-.09-.09-.18-.09-4.43-2.44-7.41,0-7.51.18l1.54,1.72c.09-.09,1.9-1.45,4.88.09.36.27,1.63,1.09,3.53,1.09,1.08,0,2.35-.27,3.8-1.09.09,0,.18-.09.18-.09.09-.09,1.9-1.54,4.88.09.54.27,1.27.09,1.54-.45.36-.54.09-1.27-.45-1.54h0ZM17.09,29.57c.36.27,1.63,1.09,3.53,1.09,1.09,0,2.35-.27,3.8-1.09.54-.27.72-.99.45-1.54-.27-.54-.99-.72-1.54-.45-2.98,1.63-4.79.18-4.88.09-.09,0-.09-.09-.18-.09-4.43-2.44-7.41,0-7.51.18-.45.45-.54,1.17-.09,1.63.45.45,1.17.54,1.63.18,0-.18,1.81-1.63,4.79,0h0Z"/>
</svg>