<?xml version="1.0" encoding="UTF-8"?>
<svg id="Layer_1" xmlns="http://www.w3.org/2000/svg" version="1.1" viewBox="0 0 52 52">
  <!-- Generator: Adobe Illustrator 30.6.0, SVG Export Plug-In . SVG Version: 2.1.4 Build 109)  -->
  <defs>
    <style>
      .st0 {
        fill: #5d65b0;
      }
    </style>
  </defs>
  <path class="st0" d="M16.01,24.82h20.7c.25-.09.42-.17.59-.34,0-.09.17-.17.17-.34v-.34c0-24.22,0-22.78-.09-23.12-.17-.42-.59-.68-1.02-.68C14.65,0,15.93,0,15.67.09c-.17.09-.34.17-.42.25-.17.17-.34.42-.34.76,0,.17,0,22.78,0,22.7.25.59.68.93,1.1,1.02h0ZM20.76,20.5h10.94l2.12,2.12h-15.1l2.04-2.12ZM31.11,6.52v11.86h-9.75V6.52h9.75ZM33.32,18.97V5.85l2.12-2.2v17.45l-2.12-2.12ZM31.7,4.32h-10.94l-2.04-2.12h15.18l-2.21,2.12ZM19.23,5.85v13.21l-1.95,2.03V3.81l1.95,2.03ZM50.9,49.72h-3.22v-23.8c0-1.27-.59-2.46-1.44-3.22.93-.76,1.44-1.95,1.44-3.22,0-2.37-1.95-4.32-4.33-4.32s-4.33,1.95-4.33,4.32c0,1.27.59,2.46,1.44,3.22-.93.76-1.44,1.95-1.44,3.22v2.54c-7.3,3.13-14,2.96-18.41,2.29-3.73-.59-6.45-1.69-7.55-2.2v-2.54c0-1.27-.59-2.46-1.44-3.22.93-.76,1.44-1.95,1.44-3.22,0-2.37-1.95-4.32-4.33-4.32s-4.33,1.95-4.33,4.32c0,1.27.59,2.46,1.44,3.22-.93.76-1.44,1.95-1.44,3.22v23.8H1.1c-.59,0-1.1.51-1.1,1.1s.51,1.1,1.1,1.1h49.79c.59,0,1.1-.51,1.1-1.1,0-.76-.51-1.18-1.1-1.18h0ZM41.14,19.48c0-1.18,1.02-2.12,2.12-2.12,1.19,0,2.21.93,2.21,2.12s-1.02,2.12-2.21,2.12c-1.1,0-2.12-.93-2.12-2.12ZM13.06,35.15c7.8,3.22,17.31,3.47,25.96,0v14.57H13.06v-14.57ZM39.02,30.83v1.95c-7.3,3.13-14,2.96-18.41,2.29-3.73-.59-6.45-1.69-7.55-2.2v-1.95c7.8,3.13,17.31,3.39,25.96-.09ZM6.53,19.48c0-1.18.93-2.12,2.21-2.12,1.19,0,2.12.93,2.12,2.12s-.93,2.12-2.12,2.12-2.21-.93-2.21-2.12ZM6.53,49.72v-23.8c0-1.19.93-2.12,2.21-2.12,1.19,0,2.12,1.02,2.12,2.12,0,.25,0,7.88,0,7.54v16.18h-4.33v.09ZM41.14,49.72v-23.8c0-1.19,1.02-2.12,2.12-2.12,1.19,0,2.21,1.02,2.21,2.12v23.8h-4.33Z"/>
</svg>