<svg width="233" height="39" viewBox="0 0 233 39" fill="none" xmlns="http://www.w3.org/2000/svg">
<path d="M46.2054 16.7967C46.5948 17.2874 46.7852 17.847 46.7852 18.4755V22.4702C46.7852 22.9868 46.5169 23.6238 46.1535 23.9768L29.7826 38.7503C29.4365 39.0775 28.8308 39.0861 28.4847 38.7503L24.7727 35.2033L38.9199 21.3252C39.5861 20.6623 39.7159 19.8444 39.2746 19.0265L29.1077 0H30.6652C31.167 0 31.8593 0.344371 32.1794 0.749007L46.2054 16.8053M10.141 20.2921L22.9297 32.9391C23.0248 33.0338 23.1979 33.094 23.3883 33.094C23.57 33.094 23.7517 33.0338 23.8469 32.9391L36.6269 20.2921C36.9817 19.9477 37.0509 19.5517 36.8346 19.104L27.5243 0H26.5292L33.4081 18.3722C33.6417 18.9921 33.6677 19.4914 33.0879 20.0596L24.2362 28.7464C23.8036 29.1682 22.9816 29.1682 22.5576 28.7464L13.7059 20.0596C13.1262 19.4828 13.1521 18.9834 13.3857 18.3722L20.2473 0H19.2609L9.94196 19.1126C9.71699 19.5517 9.78621 19.9477 10.141 20.3007M0.579731 16.7967C0.199012 17.2874 0 17.847 0 18.4755V22.4702C0 22.9868 0.268234 23.6238 0.631647 23.9768L16.9939 38.7503C17.34 39.0861 17.9544 39.0861 18.2918 38.7503L22.0038 35.2033L7.86531 21.3338C7.1904 20.6709 7.06926 19.8616 7.51055 19.0351L17.6688 0H16.12C15.6181 0 14.9259 0.335762 14.6058 0.740397L0.579731 16.7967ZM31.1065 18.2172L25.0669 0H24.3833L28.8568 17.5629C28.9346 17.8728 28.9866 18.3205 28.5885 18.7252L23.9161 23.4689C23.7776 23.6066 23.5873 23.6755 23.3883 23.6755C23.1892 23.6755 22.9902 23.6066 22.8604 23.4689L18.1793 18.7252C17.7813 18.3291 17.8332 17.8728 17.9111 17.5629L22.3932 0H21.7183L15.6874 18.2172C15.5922 18.5013 15.6614 18.8715 15.8431 19.0609L22.9816 26.2066C23.0941 26.3099 23.2498 26.3616 23.3969 26.3616C23.544 26.3616 23.6998 26.3099 23.8036 26.2066L30.9507 19.0609C31.1324 18.8715 31.2017 18.5013 31.1065 18.2172ZM91.7273 19.0609C91.7273 18.7682 91.4937 18.5358 91.2082 18.5358H78.0301V15.4967H89.3392C89.6247 15.4967 89.8583 15.2642 89.8583 14.9715V13.4305C89.8583 13.1377 89.6247 12.9053 89.3392 12.9053H66.6345V9.96093H89.3392C89.6247 9.96093 89.8583 9.72848 89.8583 9.43576V7.88609C89.8583 7.60199 89.6247 7.36954 89.3392 7.36954H61.0794C60.7852 7.36954 60.5603 7.60199 60.5603 7.88609V9.43576C60.5603 9.72848 60.7939 9.96093 61.0794 9.96093H62.2216V14.9715C62.2216 15.2556 62.4552 15.4967 62.7408 15.4967H73.6345V18.5358H60.9496C60.6641 18.5358 60.4305 18.7682 60.4305 19.0609V20.6106C60.4305 20.8947 60.6641 21.1272 60.9496 21.1272H91.2082C91.4937 21.1272 91.7273 20.8947 91.7273 20.6106V19.0609ZM89.8583 24.1748C89.8583 23.8821 89.6247 23.6497 89.3392 23.6497H62.3687C62.0832 23.6497 61.8409 23.8821 61.8409 24.1748V25.7159C61.8409 26.0086 62.0745 26.2411 62.3687 26.2411H85.4541V32.6636C85.4541 32.9391 85.6964 33.1801 85.9819 33.1801H89.3392C89.6247 33.1801 89.8583 32.9477 89.8583 32.6636V24.1748ZM228.899 31.1225C228.899 30.8384 228.665 30.5974 228.371 30.5974H207.042V24.1404C207.042 23.8477 206.808 23.6152 206.514 23.6152H203.157C202.863 23.6152 202.638 23.8477 202.638 24.1404V32.6636C202.638 32.9477 202.871 33.1801 203.157 33.1801H228.362C228.648 33.1801 228.89 32.9477 228.89 32.6636V31.1225H228.899ZM233 13.3616C233 13.0689 232.766 12.845 232.472 12.845H228.596V7.57616C228.596 7.29205 228.371 7.0596 228.077 7.0596H224.719C224.425 7.0596 224.2 7.29205 224.2 7.57616V18.002H219.978V7.91192C219.978 7.62781 219.744 7.39536 219.45 7.39536H202.162C201.876 7.39536 201.643 7.62781 201.643 7.91192V9.46159C201.643 9.7543 201.876 9.98676 202.162 9.98676H215.582V18.0106H209.058V13.8179C209.058 13.5252 208.824 13.2927 208.539 13.2927H205.182C204.896 13.2927 204.654 13.5252 204.654 13.8179V18.0106H201.695C201.4 18.0106 201.175 18.243 201.175 18.5272V20.0682C201.175 20.3523 201.409 20.5934 201.695 20.5934H224.2V22.5649C224.2 22.849 224.434 23.0815 224.719 23.0815H228.077C228.371 23.0815 228.596 22.849 228.596 22.5649V15.445H232.472C232.766 15.445 233 15.2126 233 14.9199V13.3788V13.3616ZM126.174 32.6722C126.174 32.9563 125.94 33.1887 125.655 33.1887H98.9091C98.6235 33.1887 98.3899 32.9563 98.3899 32.6722V23.3656C98.3899 23.0815 98.6235 22.849 98.9091 22.849H102.266C102.552 22.849 102.785 23.0815 102.785 23.3656V25.449H121.769V23.3656C121.769 23.0815 122.003 22.849 122.289 22.849H125.646C125.931 22.849 126.165 23.0815 126.165 23.3656V32.6722H126.174ZM121.778 28.0318H102.794V30.5974H121.778V28.0318ZM126.174 7.56755C126.174 7.28344 125.94 7.05099 125.655 7.05099H122.297C122.003 7.05099 121.778 7.28344 121.778 7.56755V18.0536H102.794V15.1007H116.128C116.413 15.1007 116.647 14.8682 116.647 14.5841V7.91192C116.647 7.62781 116.413 7.39536 116.128 7.39536H97.265C96.9795 7.39536 96.7459 7.62781 96.7459 7.91192V9.46159C96.7459 9.7543 96.9795 9.98676 97.265 9.98676H112.243V12.5093H97.265C96.9795 12.5093 96.7459 12.7417 96.7459 13.0344V14.5841C96.7459 14.8682 96.9795 15.1007 97.265 15.1007H98.3985V20.1285C98.3985 20.4126 98.6322 20.6536 98.9177 20.6536H125.663C125.949 20.6536 126.182 20.4212 126.182 20.1285V7.57616L126.174 7.56755ZM159.158 7.56755C159.158 7.28344 158.924 7.05099 158.639 7.05099H155.273C154.979 7.05099 154.745 7.28344 154.745 7.56755V32.6722C154.745 32.9563 154.979 33.1887 155.273 33.1887H158.639C158.924 33.1887 159.158 32.9563 159.158 32.6722V7.56755ZM182.91 18.3205C182.91 18.0278 182.676 17.7954 182.39 17.7954H170.666V7.90331C170.666 7.61921 170.432 7.38676 170.147 7.38676H166.79C166.504 7.38676 166.27 7.61921 166.27 7.90331V19.8616C166.27 20.1543 166.504 20.3868 166.79 20.3868H182.399C182.685 20.3868 182.918 20.1543 182.918 19.8616V18.3205H182.91ZM194.418 7.56755C194.418 7.28344 194.184 7.05099 193.898 7.05099H190.541C190.256 7.05099 190.013 7.28344 190.013 7.56755V9.33245H185.125C184.839 9.33245 184.597 9.5649 184.597 9.85762V11.3901C184.597 11.6828 184.83 11.9152 185.125 11.9152H190.013V14.0589H185.125C184.839 14.0589 184.597 14.2914 184.597 14.5841V16.1252C184.597 16.4179 184.83 16.6503 185.125 16.6503H190.013V20.6623C190.013 20.955 190.238 21.1788 190.541 21.1788H193.898C194.193 21.1788 194.418 20.955 194.418 20.6623V7.55894V7.56755ZM194.418 32.6722C194.418 32.9563 194.184 33.1887 193.898 33.1887H168.226C167.94 33.1887 167.707 32.9563 167.707 32.6722V25.8106H166.591C166.305 25.8106 166.071 25.5781 166.071 25.2854V23.7702C166.071 23.4775 166.305 23.245 166.591 23.245H193.907C194.193 23.245 194.426 23.4775 194.426 23.7702V32.6722H194.418ZM190.022 25.8106H172.102V30.606H190.022V25.8106ZM148.576 7.90331C148.576 7.61921 148.351 7.38676 148.056 7.38676H131.651C131.365 7.38676 131.132 7.61921 131.132 7.90331V9.45298C131.132 9.7457 131.365 9.97815 131.651 9.97815H144.171V30.098C144.171 30.3821 144.405 30.6232 144.699 30.6232H148.056C148.342 30.6232 148.576 30.3907 148.576 30.098V7.90331Z" fill="#034EA2"/>
</svg>
