<svg width="362" height="60" viewBox="0 0 362 60" fill="none" xmlns="http://www.w3.org/2000/svg">
<path d="M8.9079 8.74089C8.78331 8.61603 8.55491 8.47034 8.22268 8.30385C7.89045 8.09573 7.49593 7.88762 7.03911 7.6795C6.58229 7.42976 6.08395 7.22164 5.54408 7.05515C5.04573 6.84703 4.56815 6.68054 4.11134 6.55567C4.65121 6.22268 5.29491 5.91051 6.04242 5.61915C6.78994 5.28616 7.55822 4.9948 8.34726 4.74506C9.17784 4.49532 9.98765 4.2872 10.7767 4.12071C11.5657 3.95421 12.2717 3.87097 12.8947 3.87097C13.1854 3.87097 13.5591 3.95421 14.0159 4.12071C14.4727 4.2872 14.9088 4.49532 15.3241 4.74506C15.7809 4.9948 16.1547 5.26535 16.4454 5.55671C16.7361 5.84807 16.8814 6.09782 16.8814 6.30593C16.8814 6.51405 16.8191 6.84703 16.6945 7.30489C16.5699 7.72112 16.4038 8.19979 16.1962 8.74089C17.8158 9.1155 19.2485 9.67742 20.4944 10.4266C21.7818 11.1759 22.8823 12.0708 23.7959 13.1113C24.7096 14.1519 25.3948 15.2966 25.8516 16.5453C26.3499 17.7523 26.5991 19.0427 26.5991 20.4162C26.5991 24.5786 25.4363 27.7836 23.1107 30.0312C20.8266 32.2373 17.6082 33.3403 13.4553 33.3403C11.3789 33.3403 9.51007 33.0281 7.84892 32.4037C6.2293 31.7794 4.81733 30.9053 3.61299 29.7815C2.45019 28.6576 1.55733 27.3257 0.934395 25.7856C0.311465 24.2456 0 22.5806 0 20.7908C0 19.2092 0.228408 17.7732 0.685223 16.4828C1.14204 15.1925 1.76497 14.0687 2.55401 13.1113C3.38459 12.1124 4.33975 11.2591 5.41949 10.5515C6.49924 9.80229 7.66204 9.19875 8.9079 8.74089ZM40.6773 5.55671C40.7604 7.80437 40.8227 10.1561 40.8642 12.6119C40.9473 15.026 40.9888 17.5026 40.9888 20.0416C42.2347 19.9584 43.4598 19.8543 44.6641 19.7295C45.9099 19.563 47.2389 19.3757 48.6508 19.1675C48.8585 19.5838 48.9623 20.0832 48.9623 20.666C48.9623 21.2071 48.8585 21.7482 48.6508 22.2893C48.4432 22.8304 48.0902 23.3299 47.5919 23.7877C47.0935 24.204 46.4498 24.4745 45.6608 24.5994C44.9133 24.7659 44.145 24.8907 43.3559 24.974C42.5669 25.0156 41.7363 25.0572 40.8642 25.0989C40.7812 27.9709 40.6358 30.7804 40.4282 33.5276C40.2205 36.2331 39.9506 38.7721 39.6183 41.1446C39.2861 43.3923 38.6009 44.974 37.5627 45.8897C36.5245 46.8054 35.3409 47.0552 34.012 46.6389C34.3442 43.1426 34.5726 39.5421 34.6972 35.8377C34.8633 32.1332 34.9464 28.4912 34.9464 24.9115C34.9464 21.3319 34.8633 17.898 34.6972 14.6098C34.5311 11.3215 34.3027 8.32466 34.012 5.61915C33.5552 5.28616 32.8284 4.84912 31.8317 4.30801C30.835 3.76691 29.6722 3.22581 28.3433 2.6847C29.4231 1.97711 30.7727 1.35276 32.3924 0.811655C34.0535 0.270552 35.86 0 37.8119 0C38.0195 0 38.3102 0.0832468 38.684 0.24974C39.0992 0.374611 39.4938 0.541105 39.8675 0.749221C40.2828 0.957337 40.6358 1.18627 40.9265 1.436C41.2172 1.64412 41.3626 1.83143 41.3626 1.99792C41.3626 2.41415 41.2795 2.99688 41.1134 3.7461C40.9888 4.49532 40.8434 5.09886 40.6773 5.55671ZM11.7734 43.7045C11.3166 43.3715 10.6936 42.9761 9.90459 42.5182C9.15707 42.0187 8.16038 41.5401 6.91452 41.0822C7.91121 40.3746 9.24013 39.7711 10.9013 39.2716C12.5624 38.7721 14.2028 38.5224 15.8224 38.5224C16.0716 38.5224 16.3831 38.6056 16.7568 38.7721C17.1306 38.897 17.4836 39.0635 17.8158 39.2716C18.1896 39.4797 18.501 39.7086 18.7502 39.9584C19.0409 40.1665 19.1862 40.3538 19.1862 40.5203C19.1862 40.9365 19.124 41.436 18.9994 42.0187C18.9163 42.6015 18.8333 43.1426 18.7502 43.642C19.0824 45.0572 19.3731 46.7014 19.6223 48.5744C19.8715 50.4475 20.0583 52.1748 20.1829 53.7565C21.5119 53.8814 23.1315 53.9022 25.0418 53.8189C26.9936 53.7773 28.987 53.6524 31.0219 53.4443C33.0984 53.2362 35.0917 52.9657 37.002 52.6327C38.9539 52.2581 40.615 51.8002 41.9855 51.2591C42.4008 51.7586 42.7122 52.2997 42.9199 52.8824C43.1275 53.4651 43.1898 54.0271 43.1068 54.5682C43.0237 55.1093 42.7745 55.6087 42.3592 56.0666C41.9855 56.5245 41.4248 56.8574 40.6773 57.0656C39.3484 57.4818 37.6873 57.8148 35.6939 58.0645C33.742 58.3559 31.6864 58.564 29.5269 58.6889C27.4089 58.8137 25.291 58.8554 23.173 58.8137C21.055 58.7721 19.207 58.6264 17.6289 58.3767C16.6738 58.2518 15.947 58.0021 15.4487 57.6275C14.9503 57.2945 14.6389 56.7742 14.5143 56.0666C14.182 53.9854 13.7875 51.8835 13.3307 49.7607C12.9154 47.5963 12.3963 45.5775 11.7734 43.7045ZM20.4321 21.103C20.4321 18.8554 19.7676 16.9615 18.4387 15.4214C17.1513 13.8814 15.1995 12.8408 12.5832 12.2997C10.3406 13.0489 8.70026 14.1519 7.66204 15.6087C6.66535 17.0656 6.16701 18.9594 6.16701 21.2903C6.16701 23.538 6.78994 25.3486 8.0358 26.7222C9.32319 28.0957 11.0674 28.7825 13.2684 28.7825C15.594 28.7825 17.359 28.0749 18.5633 26.6597C19.8092 25.2029 20.4321 23.3507 20.4321 21.103Z" fill="#293079"/>
<path d="M103.835 30.4058C101.551 30.8637 98.997 31.2799 96.1731 31.6545C93.3491 32.0291 90.4006 32.3829 87.3275 32.7159C87.369 33.6316 87.369 34.4433 87.3275 35.1509C87.3275 35.8585 87.286 36.6077 87.2029 37.3985C87.1614 37.7732 87.0991 38.127 87.016 38.4599C86.933 38.7929 86.8499 39.1051 86.7669 39.3965C88.5111 39.6046 90.0476 40.0208 91.3765 40.6452C92.747 41.2279 93.8683 41.9771 94.7404 42.8928C95.654 43.7669 96.3392 44.7659 96.796 45.8897C97.2944 47.0135 97.5435 48.1998 97.5435 49.4485C97.5435 51.1967 97.1905 52.7159 96.4846 54.0062C95.8201 55.3382 94.8649 56.4412 93.6191 57.3153C92.4148 58.231 91.0028 58.897 89.3832 59.3132C87.7635 59.7711 86.0193 60 84.1505 60C82.2818 60 80.5168 59.7503 78.8556 59.2508C77.236 58.7929 75.8241 58.127 74.6197 57.2529C73.4154 56.3788 72.4602 55.3174 71.7542 54.0687C71.0483 52.8616 70.6953 51.5088 70.6953 50.0104C70.6953 47.2633 71.6089 44.9324 73.4362 43.0177C75.2634 41.103 77.8382 39.9168 81.1605 39.4589C81.119 38.3767 81.0567 37.3361 80.9736 36.3371C80.9321 35.3382 80.8698 34.3392 80.7867 33.3403C77.589 33.59 74.4951 33.7773 71.5051 33.9022C68.5565 34.0271 65.8987 34.0479 63.5316 33.9646C62.701 33.9646 61.995 33.7981 61.4136 33.4651C60.8322 33.0905 60.3754 32.6327 60.0432 32.0916C59.7109 31.5088 59.4825 30.8845 59.3579 30.2185C59.2333 29.5525 59.2333 28.9074 59.3579 28.283C63.1786 28.4912 67.1861 28.5744 71.3805 28.5328C75.5749 28.4495 79.7485 28.2622 83.9014 27.9709C88.0958 27.6795 92.1448 27.3257 96.0485 26.9095C99.9522 26.4516 103.503 25.9521 106.701 25.411C106.908 25.8273 106.991 26.3059 106.95 26.847C106.95 27.3465 106.825 27.846 106.576 28.3455C106.368 28.8033 106.036 29.2404 105.579 29.6566C105.123 30.0312 104.541 30.281 103.835 30.4058ZM96.1731 7.6795C95.0934 7.88762 93.8475 8.09573 92.4355 8.30385C91.0235 8.47034 89.5285 8.63684 87.9504 8.80333C88.4072 9.17794 88.6356 9.55255 88.6356 9.92716C88.5526 10.6348 88.3034 11.2383 87.8881 11.7378C87.4728 12.1956 86.8499 12.7784 86.0193 13.486L85.8948 13.6108C87.1821 13.9022 88.5318 14.2144 89.9438 14.5473C91.3558 14.8803 92.6847 15.2341 93.9305 15.6087C95.2179 15.9833 96.4015 16.358 97.4812 16.7326C98.561 17.0656 99.4123 17.3777 100.035 17.6691C100.741 18.0021 101.24 18.4599 101.53 19.0427C101.863 19.6254 101.987 20.2497 101.904 20.9157C101.821 21.5401 101.51 22.206 100.97 22.9136C100.471 23.5796 99.7446 24.1623 98.7894 24.6618C97.8342 23.9542 96.713 23.2258 95.4256 22.4766C94.1382 21.7274 92.7677 20.999 91.3142 20.2914C89.8607 19.5421 88.3449 18.8762 86.7669 18.2934C85.2303 17.6691 83.7145 17.128 82.2195 16.6701C80.3922 18.1269 78.3573 19.6046 76.1148 21.103C73.8722 22.5598 71.2767 24.0999 68.3281 25.7232C66.9577 26.4724 65.7533 26.7638 64.7151 26.5973C63.7184 26.3892 62.784 25.7648 61.9119 24.7242C65.9818 22.0187 69.6155 19.4589 72.8132 17.0447C76.0525 14.6306 78.6065 12.3205 80.4753 10.1145L79.7277 9.42768C77.6098 9.55255 75.6372 9.6358 73.8099 9.67742C71.9826 9.71904 70.5291 9.71904 69.4494 9.67742C68.6188 9.67742 67.8713 9.51093 67.2069 9.17794C66.5839 8.80333 66.0648 8.36629 65.6495 7.8668C65.2758 7.3257 65.0058 6.74298 64.8397 6.11863C64.7151 5.49428 64.7567 4.86993 64.9643 4.24558C66.9992 4.45369 69.4909 4.57856 72.4395 4.62019C75.388 4.62019 78.4404 4.53694 81.5965 4.37045C84.7527 4.20395 87.8258 3.95421 90.8159 3.62123C93.806 3.24662 96.36 2.80957 98.4779 2.31009C98.6856 2.76795 98.8309 3.26743 98.914 3.80853C98.9971 4.34964 98.9555 4.89074 98.7894 5.43184C98.6648 5.93132 98.3949 6.38918 97.9796 6.80541C97.5643 7.22165 96.9621 7.51301 96.1731 7.6795ZM91.1897 49.4485C91.1897 47.8668 90.5667 46.4932 89.3209 45.3278C88.075 44.1207 86.31 43.5172 84.026 43.5172C81.7419 43.5172 79.9977 44.1415 78.7933 45.3902C77.6305 46.6389 77.0491 48.1374 77.0491 49.8855C77.0491 50.7596 77.236 51.5713 77.6098 52.3205C77.9835 53.0281 78.5026 53.6316 79.1671 54.1311C79.8316 54.6306 80.5791 55.0052 81.4097 55.2549C82.2402 55.5463 83.1331 55.692 84.0883 55.692C86.2062 55.692 87.9089 55.1509 89.1963 54.0687C90.5252 52.9865 91.1897 51.4464 91.1897 49.4485Z" fill="#293079"/>
<path d="M164.875 30.0312C162.176 30.5723 159.061 31.0718 155.531 31.5297C152.043 31.9875 148.45 32.3829 144.754 32.7159C141.1 33.0073 137.508 33.2362 133.978 33.4027C130.448 33.5692 127.312 33.6316 124.571 33.59C123.741 33.59 123.035 33.4235 122.453 33.0905C121.872 32.7159 121.415 32.2581 121.083 31.717C120.751 31.1342 120.522 30.5099 120.398 29.8439C120.273 29.1779 120.273 28.5328 120.398 27.9084C125.423 28.1998 130.697 28.2622 136.22 28.0957C141.744 27.8876 147.142 27.5338 152.416 27.0343C152.873 23.6629 153.185 20.5827 153.351 17.794C153.517 14.9636 153.538 12.2997 153.413 9.80229C151.793 10.052 149.945 10.3226 147.869 10.6139C145.834 10.8637 143.737 11.0926 141.577 11.3007C139.459 11.5088 137.341 11.6545 135.224 11.7378C133.147 11.821 131.237 11.821 129.493 11.7378C127.831 11.6545 126.627 11.0718 125.88 9.98959C125.174 8.90739 124.924 7.57544 125.132 5.99376C127.292 6.20187 129.638 6.32674 132.171 6.36837C134.704 6.36837 137.238 6.30593 139.771 6.18106C142.304 6.05619 144.734 5.8897 147.059 5.68158C149.385 5.47347 151.42 5.22373 153.164 4.93236C153.745 4.641 154.534 4.37045 155.531 4.12071C156.528 3.82934 157.441 3.68366 158.272 3.68366C158.438 3.68366 158.687 3.76691 159.019 3.9334C159.352 4.0999 159.663 4.2872 159.954 4.49532C160.286 4.70344 160.577 4.93236 160.826 5.1821C161.075 5.39022 161.2 5.57752 161.2 5.74402C161.2 6.077 161.137 6.55567 161.013 7.18002C160.93 7.80437 160.805 8.32466 160.639 8.74089C160.473 11.488 160.182 14.3184 159.767 17.2321C159.393 20.1457 158.957 22.7471 158.459 25.0364C158.334 25.4527 158.168 25.9313 157.96 26.4724C159.705 26.2643 161.387 26.0354 163.006 25.7856C164.667 25.5359 166.245 25.2862 167.74 25.0364C167.948 25.4527 168.031 25.9313 167.99 26.4724C167.99 26.9719 167.865 27.4714 167.616 27.9709C167.408 28.4287 167.076 28.8658 166.619 29.282C166.162 29.6566 165.581 29.9063 164.875 30.0312ZM130.24 42.8304C129.783 42.4974 129.16 42.102 128.371 41.6441C127.624 41.1863 126.627 40.7076 125.381 40.2081C126.378 39.5005 127.686 38.9178 129.306 38.4599C130.967 37.9605 132.628 37.7107 134.289 37.7107C134.497 37.7107 134.787 37.794 135.161 37.9605C135.535 38.0853 135.909 38.2518 136.282 38.4599C136.656 38.6681 136.968 38.897 137.217 39.1467C137.508 39.3548 137.653 39.5421 137.653 39.7086C137.653 40.1249 137.591 40.6243 137.466 41.2071C137.383 41.7898 137.279 42.3101 137.155 42.7679C137.321 43.5588 137.487 44.4537 137.653 45.4527C137.819 46.41 137.964 47.3881 138.089 48.3871C138.255 49.3861 138.38 50.3642 138.463 51.3215C138.587 52.2373 138.67 53.0489 138.712 53.7565C140.041 53.8814 141.702 53.9022 143.695 53.8189C145.73 53.7773 147.827 53.6524 149.987 53.4443C152.146 53.2362 154.223 52.9657 156.216 52.6327C158.251 52.2581 159.954 51.8002 161.324 51.2591C161.74 51.7586 162.051 52.2997 162.259 52.8824C162.466 53.4651 162.529 54.0271 162.446 54.5682C162.362 55.1093 162.113 55.6087 161.698 56.0666C161.324 56.5245 160.764 56.8574 160.016 57.0656C158.687 57.4818 156.985 57.8148 154.908 58.0645C152.873 58.3559 150.734 58.564 148.492 58.6889C146.249 58.8137 144.028 58.8554 141.827 58.8137C139.667 58.7721 137.798 58.6264 136.22 58.3767C135.265 58.2518 134.518 58.0021 133.978 57.6275C133.479 57.2945 133.189 56.7742 133.106 56.0666C132.815 54.1103 132.42 51.9251 131.922 49.5109C131.424 47.0551 130.863 44.8283 130.24 42.8304Z" fill="#293079"/>
<path d="M205.992 15.5391H186.539V13.1719H194.766V11.2734H188.906V3.67969H203.695V6.04688H191.883V8.85938H203.906V11.2734H197.766V13.1719H205.992V15.5391ZM203.672 24.2344H200.742V19.3828H188.695V17.0156H203.672V24.2344Z" fill="black"/>
<path d="M225.141 14.7422H222.141V2.85938H225.141V14.7422ZM218.273 10.1484H211.336V11.918C213.391 11.9023 215.062 11.8594 216.352 11.7891C217.648 11.7188 218.961 11.5703 220.289 11.3438L220.664 13.7344C219.141 13.9922 217.621 14.1641 216.105 14.25C214.598 14.3281 212.656 14.3672 210.281 14.3672H208.406V7.875H215.297V6.1875H208.383V3.79688H218.273V10.1484ZM213.844 17.4609H222.164V15.6328H225.141V23.9297H210.867V15.6328H213.844V17.4609ZM222.164 21.5391V19.7812H213.844V21.5391H222.164Z" fill="black"/>
<path d="M240.023 7.00781C240.008 8.4375 239.965 9.73828 239.895 10.9102C239.824 12.0742 239.672 13.3906 239.438 14.8594L236.484 14.625C236.695 13.25 236.836 12.0117 236.906 10.9102C236.977 9.80859 237.02 8.625 237.035 7.35938H228.961V4.96875H240.023V7.00781ZM234.703 17.2734C237.023 17.1797 239.086 17.0156 240.891 16.7812L241.078 19.0078C239.281 19.3125 237.395 19.5234 235.418 19.6406C233.441 19.75 231.375 19.8047 229.219 19.8047H228.117L227.836 17.4141H228.82L231.75 17.3672V11.0859H234.703V17.2734ZM244.922 11.4141H247.828V13.8984H244.922V24.1641H241.898V2.83594H244.922V11.4141Z" fill="black"/>
<path d="M266.203 6.63281H264.445V12.3281C265.188 12.2656 265.883 12.1953 266.531 12.1172L266.648 14.3203C264.867 14.625 262.969 14.8281 260.953 14.9297C258.945 15.0234 256.828 15.0703 254.602 15.0703L254.297 12.6562L256.57 12.6328V6.63281H254.836V4.24219H266.203V6.63281ZM272.273 15.8672H269.297V12.6797H266.672V10.2891H269.297V8.64844H266.672V6.30469H269.297V2.83594H272.273V15.8672ZM264.984 16.1953C266.516 16.2031 267.828 16.3633 268.922 16.6758C270.023 16.9883 270.867 17.4453 271.453 18.0469C272.039 18.6406 272.336 19.3594 272.344 20.2031C272.336 21.0234 272.039 21.7305 271.453 22.3242C270.867 22.918 270.023 23.3711 268.922 23.6836C267.82 24.0039 266.508 24.1641 264.984 24.1641C263.469 24.1641 262.16 24.0039 261.059 23.6836C259.957 23.3711 259.113 22.918 258.527 22.3242C257.941 21.7305 257.648 21.0234 257.648 20.2031C257.648 19.3594 257.941 18.6406 258.527 18.0469C259.113 17.4453 259.953 16.9883 261.047 16.6758C262.148 16.3633 263.461 16.2031 264.984 16.1953ZM264.984 18.4922C263.539 18.4922 262.449 18.6328 261.715 18.9141C260.988 19.1953 260.625 19.625 260.625 20.2031C260.625 20.7656 260.992 21.1875 261.727 21.4688C262.461 21.75 263.547 21.8906 264.984 21.8906C266.422 21.8906 267.512 21.75 268.254 21.4688C268.996 21.1875 269.367 20.7656 269.367 20.2031C269.367 19.0625 267.906 18.4922 264.984 18.4922ZM261.586 12.5039V6.63281H259.453V12.5742L261.586 12.5039Z" fill="black"/>
<path d="M292.102 11.5078H294.891V13.9922H292.102V24.1641H289.078V2.83594H292.102V11.5078ZM274.781 18.1406C277.031 18.1406 278.789 18.125 280.055 18.0938V16.2656C279.297 16.1172 278.637 15.8633 278.074 15.5039C277.512 15.1445 277.078 14.6992 276.773 14.168C276.469 13.6367 276.32 13.0469 276.328 12.3984C276.32 11.6094 276.535 10.9141 276.973 10.3125C277.418 9.70312 278.039 9.23047 278.836 8.89453C279.633 8.55859 280.547 8.39062 281.578 8.39062C282.586 8.39062 283.484 8.55859 284.273 8.89453C285.07 9.23047 285.691 9.70312 286.137 10.3125C286.59 10.9141 286.82 11.6094 286.828 12.3984C286.82 13.0469 286.66 13.6406 286.348 14.1797C286.035 14.7109 285.594 15.1562 285.023 15.5156C284.461 15.875 283.805 16.125 283.055 16.2656V17.9883C284.953 17.8867 286.609 17.7344 288.023 17.5312L288.211 19.7109C286.203 20.0859 284.164 20.3242 282.094 20.4258C280.023 20.5273 277.719 20.5781 275.18 20.5781L274.781 18.1406ZM287.859 7.54688H275.203V5.20312H280.055V2.95312H283.055V5.20312H287.859V7.54688ZM281.578 10.6641C280.836 10.6641 280.246 10.8203 279.809 11.1328C279.371 11.4375 279.156 11.8594 279.164 12.3984C279.156 12.9531 279.371 13.3828 279.809 13.6875C280.246 13.9844 280.836 14.1328 281.578 14.1328C282.297 14.1328 282.871 13.9844 283.301 13.6875C283.73 13.3828 283.945 12.9531 283.945 12.3984C283.945 11.8594 283.73 11.4375 283.301 11.1328C282.871 10.8203 282.297 10.6641 281.578 10.6641Z" fill="black"/>
<path d="M315.281 14.625H295.758V12.3984H315.281V14.625ZM312.938 20.7188H300.984V21.9375H313.57V23.9766H298.008V18.8203H309.984V17.7422H297.984V15.6797H312.938V20.7188ZM312.914 8.22656H301.172V9.375H313.289V11.3906H298.195V6.32812H309.914V5.25H298.148V3.21094H312.914V8.22656Z" fill="black"/>
<path d="M329.016 3.72656C330.094 3.71875 331.059 3.90625 331.91 4.28906C332.762 4.66406 333.43 5.19922 333.914 5.89453C334.398 6.58203 334.641 7.36719 334.641 8.25C334.641 9.125 334.398 9.91016 333.914 10.6055C333.43 11.293 332.758 11.8281 331.898 12.2109C331.047 12.5938 330.086 12.7812 329.016 12.7734C327.938 12.7812 326.973 12.5938 326.121 12.2109C325.27 11.8281 324.602 11.293 324.117 10.6055C323.641 9.91016 323.406 9.125 323.414 8.25C323.406 7.36719 323.641 6.58203 324.117 5.89453C324.602 5.19922 325.27 4.66406 326.121 4.28906C326.973 3.90625 327.938 3.71875 329.016 3.72656ZM329.016 6.11719C328.203 6.11719 327.547 6.30859 327.047 6.69141C326.547 7.06641 326.297 7.58594 326.297 8.25C326.297 8.90625 326.547 9.42188 327.047 9.79688C327.547 10.1719 328.203 10.3516 329.016 10.3359C329.852 10.3516 330.523 10.1719 331.031 9.79688C331.547 9.42188 331.805 8.90625 331.805 8.25C331.805 7.58594 331.547 7.06641 331.031 6.69141C330.523 6.30859 329.852 6.11719 329.016 6.11719ZM340.031 24.1641H337.078V2.85938H340.031V24.1641ZM322.102 14.0859C327.773 14.0859 332.336 13.8281 335.789 13.3125L335.977 15.5156C334.359 15.8359 332.578 16.0742 330.633 16.2305V23.5312H327.656V16.4062C326.281 16.4688 324.836 16.5 323.32 16.5C323.133 16.5156 322.852 16.5234 322.477 16.5234L322.102 14.0859Z" fill="black"/>
<path d="M353.086 8.46094H342.773V6.09375H346.477V3.42188H349.43V6.09375H353.086V8.46094ZM347.977 9.42188C348.875 9.42188 349.676 9.64062 350.379 10.0781C351.09 10.5078 351.645 11.1055 352.043 11.8711C352.449 12.6367 352.656 13.5078 352.664 14.4844C352.656 15.4609 352.449 16.3359 352.043 17.1094C351.645 17.8828 351.09 18.4883 350.379 18.9258C349.676 19.3555 348.875 19.5703 347.977 19.5703C347.078 19.5703 346.27 19.3555 345.551 18.9258C344.84 18.4883 344.281 17.8828 343.875 17.1094C343.469 16.3359 343.266 15.4609 343.266 14.4844C343.266 13.5156 343.469 12.6484 343.875 11.8828C344.281 11.1094 344.84 10.5078 345.551 10.0781C346.27 9.64062 347.078 9.42188 347.977 9.42188ZM347.977 11.9062C347.344 11.9062 346.836 12.1367 346.453 12.5977C346.078 13.0586 345.891 13.6875 345.891 14.4844C345.891 15.2812 346.078 15.9062 346.453 16.3594C346.836 16.8125 347.344 17.0391 347.977 17.0391C348.586 17.0391 349.078 16.8125 349.453 16.3594C349.836 15.9062 350.031 15.2812 350.039 14.4844C350.031 13.6875 349.836 13.0586 349.453 12.5977C349.078 12.1367 348.586 11.9062 347.977 11.9062ZM361.242 24.1641H358.406V13.8984H356.672V23.25H353.883V3.25781H356.672V11.5078H358.406V2.83594H361.242V24.1641Z" fill="black"/>
<path d="M203.93 43.8281H206.367V46.3125H203.93V57.1641H200.883V50.4961L199.125 52.5234C197.859 51.5469 196.949 50.0391 196.395 48C195.809 50.1406 194.836 51.7031 193.477 52.6875C192.141 51.7188 191.18 50.1836 190.594 48.082C190.055 50.0117 189.195 51.4531 188.016 52.4062L186 50.3906C186.859 49.7109 187.52 48.8828 187.98 47.9062C188.449 46.9219 188.762 45.8867 188.918 44.8008C189.082 43.707 189.164 42.5156 189.164 41.2266V37.5234H191.977V41.2266C191.961 42.6797 192.059 44.0312 192.27 45.2812C192.488 46.5312 192.898 47.6562 193.5 48.6562C194.078 47.6719 194.469 46.5664 194.672 45.3398C194.875 44.1055 194.984 42.7344 195 41.2266V37.5234H197.812V41.2266C197.812 42.5234 197.887 43.7148 198.035 44.8008C198.191 45.8789 198.492 46.9023 198.938 47.8711C199.391 48.8398 200.039 49.6562 200.883 50.3203V35.8359H203.93V43.8281Z" fill="black"/>
<path d="M226.781 48.6094H218.695V52.3125H215.672V48.6094H207.258V46.2188H226.781V48.6094ZM224.625 56.7891H209.578V50.4141H212.602V54.375H224.625V56.7891ZM217.008 36.2344C218.539 36.2422 219.883 36.4297 221.039 36.7969C222.203 37.1562 223.105 37.668 223.746 38.332C224.387 38.9961 224.711 39.7734 224.719 40.6641C224.711 41.5625 224.387 42.3438 223.746 43.0078C223.105 43.6719 222.203 44.1836 221.039 44.543C219.883 44.8945 218.539 45.0703 217.008 45.0703C215.469 45.0703 214.113 44.8945 212.941 44.543C211.777 44.1836 210.875 43.6719 210.234 43.0078C209.594 42.3438 209.273 41.5625 209.273 40.6641C209.273 39.7734 209.594 38.9961 210.234 38.332C210.875 37.668 211.777 37.1562 212.941 36.7969C214.113 36.4297 215.469 36.2422 217.008 36.2344ZM217.008 38.6016C215.594 38.6016 214.488 38.7812 213.691 39.1406C212.895 39.4922 212.5 40 212.508 40.6641C212.5 41.3125 212.895 41.8125 213.691 42.1641C214.496 42.5078 215.602 42.6797 217.008 42.6797C218.398 42.6797 219.496 42.5078 220.301 42.1641C221.105 41.8125 221.508 41.3125 221.508 40.6641C221.508 40 221.105 39.4922 220.301 39.1406C219.504 38.7812 218.406 38.6016 217.008 38.6016Z" fill="black"/>
<path d="M252 57.1641H249.164V46.4531H247.102V56.1328H244.359V36.1875H247.102V44.0625H249.164V35.8359H252V57.1641ZM242.109 40.7109H237.164V49.8164C238.289 49.8008 239.32 49.7578 240.258 49.6875C241.195 49.6172 242.148 49.4922 243.117 49.3125L243.328 51.75C242.133 51.9766 240.961 52.1289 239.812 52.207C238.664 52.2773 237.273 52.3203 235.641 52.3359H234.164V38.2969H242.109V40.7109Z" fill="black"/>
<path d="M271.219 42.3984H274.102V44.8359H271.219V51.7734H268.219V35.8594H271.219V42.3984ZM266.953 40.4531H254.297V38.0859H259.148V35.8125H262.125V38.0859H266.953V40.4531ZM260.625 41.2031C261.648 41.2031 262.555 41.375 263.344 41.7188C264.141 42.0625 264.762 42.5469 265.207 43.1719C265.652 43.7969 265.875 44.5156 265.875 45.3281C265.875 46.1406 265.652 46.8555 265.207 47.4727C264.77 48.082 264.152 48.5586 263.355 48.9023C262.559 49.2383 261.648 49.4062 260.625 49.4062C259.594 49.4062 258.676 49.2383 257.871 48.9023C257.074 48.5586 256.449 48.082 255.996 47.4727C255.551 46.8555 255.328 46.1406 255.328 45.3281C255.328 44.5156 255.551 43.7969 255.996 43.1719C256.449 42.5469 257.074 42.0625 257.871 41.7188C258.676 41.375 259.594 41.2031 260.625 41.2031ZM260.625 43.4766C259.898 43.4922 259.32 43.6602 258.891 43.9805C258.461 44.3008 258.25 44.75 258.258 45.3281C258.25 45.9062 258.457 46.3516 258.879 46.6641C259.309 46.9766 259.891 47.1328 260.625 47.1328C261.359 47.1328 261.945 46.9766 262.383 46.6641C262.82 46.3438 263.039 45.8984 263.039 45.3281C263.039 44.75 262.82 44.3008 262.383 43.9805C261.945 43.6602 261.359 43.4922 260.625 43.4766ZM271.992 56.7891H257.391V50.5547H260.367V54.3984H271.992V56.7891Z" fill="black"/>
<path d="M292.242 38.4375C292.242 39.5234 292.219 40.4883 292.172 41.332C292.125 42.168 292.004 43.0938 291.809 44.1094H294.562V46.5H286.266V49.5703H292.266V57.1641H289.266V51.9141H277.008V49.5703H283.266V46.5H275.039V44.1094H288.797C288.977 43.2109 289.098 42.375 289.16 41.6016C289.223 40.8203 289.258 40 289.266 39.1406H277.43V36.7734H292.242V38.4375Z" fill="black"/>
<path d="M313.641 51.1875H310.641V35.8594H313.641V51.1875ZM314.203 56.7891H299.344V49.6406H302.367V54.3984H314.203V56.7891ZM301.945 37.2188C303.031 37.2188 304.016 37.4492 304.898 37.9102C305.789 38.3711 306.492 39.0117 307.008 39.832C307.523 40.6445 307.781 41.5625 307.781 42.5859C307.781 43.625 307.523 44.5586 307.008 45.3867C306.5 46.207 305.801 46.8477 304.91 47.3086C304.02 47.7695 303.031 48 301.945 48C300.859 48 299.871 47.7695 298.98 47.3086C298.09 46.8477 297.387 46.207 296.871 45.3867C296.363 44.5586 296.109 43.625 296.109 42.5859C296.109 41.5625 296.367 40.6445 296.883 39.832C297.398 39.0117 298.098 38.3711 298.98 37.9102C299.871 37.4492 300.859 37.2188 301.945 37.2188ZM301.945 39.8203C301.391 39.8125 300.891 39.9219 300.445 40.1484C300 40.3672 299.652 40.6875 299.402 41.1094C299.152 41.5312 299.031 42.0234 299.039 42.5859C299.031 43.1641 299.152 43.668 299.402 44.0977C299.652 44.5195 299.996 44.8438 300.434 45.0703C300.879 45.2891 301.383 45.3984 301.945 45.3984C302.492 45.3984 302.98 45.2891 303.41 45.0703C303.848 44.8438 304.191 44.5195 304.441 44.0977C304.699 43.668 304.828 43.1641 304.828 42.5859C304.828 42.0234 304.699 41.5312 304.441 41.1094C304.191 40.6875 303.848 40.3672 303.41 40.1484C302.973 39.9219 302.484 39.8125 301.945 39.8203Z" fill="black"/>
</svg>
