<svg width="663" height="111" viewBox="0 0 663 111" fill="none" xmlns="http://www.w3.org/2000/svg">
<path d="M131.477 47.8033C132.585 49.1999 133.127 50.7926 133.127 52.5812V63.9501C133.127 65.4202 132.364 67.2334 131.33 68.238L84.7462 110.283C83.7614 111.214 82.0379 111.239 81.053 110.283L70.4905 100.189L110.746 60.6914C112.642 58.8047 113.011 56.477 111.756 54.1493L82.8258 0H87.2576C88.6856 0 90.6553 0.980078 91.5663 2.13167L131.477 47.8278M28.8561 57.7511L65.2462 93.7445C65.517 94.014 66.0095 94.1855 66.5511 94.1855C67.0682 94.1855 67.5852 94.014 67.8561 93.7445L104.222 57.7511C105.231 56.771 105.428 55.644 104.813 54.3699L78.3201 0H75.4886L95.0625 52.2872C95.7273 54.0513 95.8011 55.4724 94.1515 57.0896L68.964 81.812C67.733 83.0126 65.3939 83.0126 64.1875 81.812L39 57.0896C37.3504 55.4479 37.4242 54.0268 38.089 52.2872L57.6136 0H54.8068L28.2898 54.3944C27.6496 55.644 27.8466 56.771 28.8561 57.7756M1.64962 47.8033C0.566288 49.1999 0 50.7926 0 52.5812V63.9501C0 65.4202 0.763258 67.2334 1.79735 68.238L48.3561 110.283C49.3409 111.239 51.089 111.239 52.0492 110.283L62.6117 100.189L22.3807 60.7159C20.4602 58.8292 20.1155 56.526 21.3712 54.1738L50.2765 0H45.8693C44.4413 0 42.4716 0.955576 41.5606 2.10717L1.64962 47.8033ZM88.5133 51.8461L71.3277 0H69.3826L82.1117 49.984C82.3333 50.8661 82.4811 52.1402 81.3485 53.2918L68.053 66.7923C67.6591 67.1844 67.1174 67.3804 66.5511 67.3804C65.9849 67.3804 65.4186 67.1844 65.0492 66.7923L51.7292 53.2918C50.5966 52.1647 50.7443 50.8661 50.9659 49.984L63.7197 0H61.7992L44.6383 51.8461C44.3674 52.6547 44.5644 53.7083 45.0814 54.2473L65.3939 74.584C65.714 74.878 66.1572 75.025 66.5758 75.025C66.9943 75.025 67.4375 74.878 67.733 74.584L88.0701 54.2473C88.5871 53.7083 88.7841 52.6547 88.5133 51.8461ZM261.009 54.2473C261.009 53.4143 260.345 52.7527 259.532 52.7527H222.034V44.1035H254.214C255.027 44.1035 255.691 43.442 255.691 42.6089V38.2231C255.691 37.39 255.027 36.7284 254.214 36.7284H189.608V28.3488H254.214C255.027 28.3488 255.691 27.6872 255.691 26.8541V22.4438C255.691 21.6352 255.027 20.9737 254.214 20.9737H173.801C172.964 20.9737 172.324 21.6352 172.324 22.4438V26.8541C172.324 27.6872 172.989 28.3488 173.801 28.3488H177.051V42.6089C177.051 43.4175 177.716 44.1035 178.528 44.1035H209.527V52.7527H173.432C172.619 52.7527 171.955 53.4143 171.955 54.2473V58.6577C171.955 59.4663 172.619 60.1278 173.432 60.1278H259.532C260.345 60.1278 261.009 59.4663 261.009 58.6577V54.2473ZM255.691 68.8015C255.691 67.9684 255.027 67.3069 254.214 67.3069H177.47C176.657 67.3069 175.968 67.9684 175.968 68.8015V73.1874C175.968 74.0204 176.633 74.682 177.47 74.682H243.159V92.9604C243.159 93.7445 243.848 94.4306 244.661 94.4306H254.214C255.027 94.4306 255.691 93.769 255.691 92.9604V68.8015ZM651.33 88.5746C651.33 87.766 650.665 87.08 649.828 87.08H589.136V68.7035C589.136 67.8704 588.472 67.2089 587.634 67.2089H578.081C577.244 67.2089 576.604 67.8704 576.604 68.7035V92.9604C576.604 93.769 577.269 94.4306 578.081 94.4306H649.803C650.616 94.4306 651.305 93.769 651.305 92.9604V88.5746H651.33ZM663 38.027C663 37.194 662.335 36.5569 661.498 36.5569H650.468V21.5617C650.468 20.7532 649.828 20.0916 648.991 20.0916H639.437C638.6 20.0916 637.96 20.7532 637.96 21.5617V51.2336H625.945V22.5173C625.945 21.7087 625.28 21.0472 624.443 21.0472H575.25C574.438 21.0472 573.773 21.7087 573.773 22.5173V26.9277C573.773 27.7607 574.438 28.4223 575.25 28.4223H613.437V51.2581H594.873V39.3256C594.873 38.4926 594.208 37.831 593.396 37.831H583.843C583.03 37.831 582.341 38.4926 582.341 39.3256V51.2581H573.92C573.083 51.2581 572.443 51.9197 572.443 52.7282V57.1141C572.443 57.9226 573.108 58.6087 573.92 58.6087H637.96V64.2196C637.96 65.0282 638.625 65.6898 639.437 65.6898H648.991C649.828 65.6898 650.468 65.0282 650.468 64.2196V43.9565H661.498C662.335 43.9565 663 43.295 663 42.4619V38.076V38.027ZM359.027 92.9849C359.027 93.7935 358.362 94.4551 357.549 94.4551H281.445C280.633 94.4551 279.968 93.7935 279.968 92.9849V66.4983C279.968 65.6898 280.633 65.0282 281.445 65.0282H290.998C291.811 65.0282 292.475 65.6898 292.475 66.4983V72.4278H346.494V66.4983C346.494 65.6898 347.159 65.0282 347.972 65.0282H357.525C358.337 65.0282 359.002 65.6898 359.002 66.4983V92.9849H359.027ZM346.519 79.7784H292.5V87.08H346.519V79.7784ZM359.027 21.5372C359.027 20.7287 358.362 20.0671 357.549 20.0671H347.996C347.159 20.0671 346.519 20.7287 346.519 21.5372V51.3806H292.5V42.9764H330.441C331.254 42.9764 331.919 42.3149 331.919 41.5063V22.5173C331.919 21.7087 331.254 21.0472 330.441 21.0472H276.767C275.955 21.0472 275.29 21.7087 275.29 22.5173V26.9277C275.29 27.7607 275.955 28.4223 276.767 28.4223H319.386V35.6013H276.767C275.955 35.6013 275.29 36.2629 275.29 37.096V41.5063C275.29 42.3149 275.955 42.9764 276.767 42.9764H279.992V57.2856C279.992 58.0941 280.657 58.7802 281.47 58.7802H357.574C358.386 58.7802 359.051 58.1186 359.051 57.2856V21.5617L359.027 21.5372ZM452.883 21.5372C452.883 20.7287 452.218 20.0671 451.405 20.0671H441.828C440.991 20.0671 440.326 20.7287 440.326 21.5372V92.9849C440.326 93.7935 440.991 94.4551 441.828 94.4551H451.405C452.218 94.4551 452.883 93.7935 452.883 92.9849V21.5372ZM520.468 52.1402C520.468 51.3071 519.803 50.6456 518.991 50.6456H485.629V22.4928C485.629 21.6842 484.964 21.0227 484.152 21.0227H474.598C473.786 21.0227 473.121 21.6842 473.121 22.4928V56.526C473.121 57.3591 473.786 58.0206 474.598 58.0206H519.015C519.828 58.0206 520.492 57.3591 520.492 56.526V52.1402H520.468ZM553.214 21.5372C553.214 20.7287 552.549 20.0671 551.737 20.0671H542.184C541.371 20.0671 540.682 20.7287 540.682 21.5372V26.5601H526.771C525.958 26.5601 525.269 27.2217 525.269 28.0547V32.4161C525.269 33.2492 525.934 33.9107 526.771 33.9107H540.682V40.0117H526.771C525.958 40.0117 525.269 40.6733 525.269 41.5063V45.8922C525.269 46.7252 525.934 47.3868 526.771 47.3868H540.682V58.8047C540.682 59.6378 541.322 60.2748 542.184 60.2748H551.737C552.574 60.2748 553.214 59.6378 553.214 58.8047V21.5127V21.5372ZM553.214 92.9849C553.214 93.7935 552.549 94.4551 551.737 94.4551H478.686C477.873 94.4551 477.208 93.7935 477.208 92.9849V73.4569H474.032C473.22 73.4569 472.555 72.7953 472.555 71.9623V67.6499C472.555 66.8168 473.22 66.1553 474.032 66.1553H551.761C552.574 66.1553 553.239 66.8168 553.239 67.6499V92.9849H553.214ZM540.706 73.4569H489.716V87.1045H540.706V73.4569ZM422.771 22.4928C422.771 21.6842 422.131 21.0227 421.294 21.0227H374.612C373.799 21.0227 373.134 21.6842 373.134 22.4928V26.9032C373.134 27.7362 373.799 28.3978 374.612 28.3978H410.239V85.6589C410.239 86.4674 410.903 87.1535 411.741 87.1535H421.294C422.106 87.1535 422.771 86.4919 422.771 85.6589V22.4928Z" fill="#034EA2"/>
</svg>
