<?xml version="1.0" encoding="UTF-8"?>
<svg id="Layer_1" xmlns="http://www.w3.org/2000/svg" version="1.1" viewBox="0 0 568.33 270.78">
  <!-- Generator: Adobe Illustrator 30.6.0, SVG Export Plug-In . SVG Version: 2.1.4 Build 109)  -->
  <defs>
    <style>
      .st0 {
        fill: #2a3292;
      }
    </style>
  </defs>
  <path d="M31.48,23.06c-1.91.38-4.11.73-6.6,1.06-2.46.32-5,.6-7.61.84-2.58.21-5.12.37-7.61.48-2.49.12-4.71.16-6.64.13-.59,0-1.09-.12-1.5-.35-.41-.26-.73-.59-.97-.97-.23-.41-.4-.85-.48-1.32s-.09-.92,0-1.36c2.32.15,4.72.22,7.22.22,2.49-.03,5.03-.12,7.61-.26l-.18-4.84c-2.32.09-4.5.04-6.56-.13-.67-.06-1.17-.22-1.5-.48s-.56-.65-.7-1.14c-.12-.5-.23-1.07-.35-1.72s-.23-1.31-.35-1.98c-.09-.7-.18-1.39-.26-2.07-.06-.67-.1-1.31-.13-1.89h-.26c-.06-.03-.13-.04-.22-.04-.59-.03-1.09-.15-1.5-.35-.41-.23-.73-.51-.97-.84-.21-.35-.34-.73-.4-1.14-.06-.44-.01-.88.13-1.32,2.05.12,4.22.18,6.51.18s4.59-.04,6.91-.13c2.32-.09,4.59-.23,6.82-.44,2.26-.21,4.37-.44,6.34-.7.15.32.22.69.22,1.1,0,.38-.07.76-.22,1.14s-.4.72-.75,1.01c-.35.29-.81.48-1.36.57-1.06.15-2.24.28-3.56.4-1.29.12-2.65.22-4.09.31-1.44.09-2.89.16-4.36.22-1.47.06-2.9.09-4.31.09,0,.44.01.92.04,1.45.06.5.1,1.01.13,1.54.06.5.12,1,.18,1.5.06.47.12.88.18,1.23,1.09.09,2.36.13,3.83.13,1.5-.03,3.05-.1,4.66-.22,1.64-.15,3.29-.34,4.93-.57,1.67-.26,3.21-.59,4.62-.97.12.23.19.56.22.97.03.38-.03.78-.18,1.19-.12.38-.34.75-.66,1.1-.32.35-.76.59-1.32.7-.97.23-2.04.44-3.21.62-1.17.15-2.42.29-3.74.44,0,.73-.01,1.53-.04,2.38,0,.82-.01,1.63-.04,2.42,2.58-.21,5.07-.44,7.48-.7,2.41-.29,4.62-.62,6.64-.97.15.29.21.63.18,1.01,0,.35-.09.7-.26,1.06-.15.32-.38.63-.7.92-.32.26-.73.44-1.23.53ZM23.78,28.25c.23-.21.59-.37,1.06-.48.47-.15,1-.22,1.58-.22.12,0,.29.04.53.13.23.09.45.19.66.31.23.12.44.25.62.4.18.12.26.23.26.35,0,.23-.04.59-.13,1.06-.09.44-.18.79-.26,1.06,0,.85-.03,1.75-.09,2.68-.03.91-.07,1.79-.13,2.64-.06.85-.13,1.64-.22,2.38-.09.73-.19,1.33-.31,1.8-.23,1.09-.72,1.83-1.45,2.24-.73.44-1.57.51-2.51.22.09-.79.15-1.66.18-2.6.06-.91.09-1.85.09-2.82s-.01-1.94-.04-2.9c0-.97-.03-1.88-.09-2.73-2.29.41-4.55.73-6.78.97-2.2.23-4.53.32-7,.26-.59,0-1.1-.12-1.54-.35-.41-.23-.75-.54-1.01-.92-.23-.38-.41-.79-.53-1.23-.09-.47-.09-.92,0-1.36,3.11.21,6.16.22,9.15.04,3.02-.21,5.68-.51,7.96-.92ZM48.77,30.32c-.32-.23-.76-.51-1.32-.84-.53-.35-1.22-.69-2.07-1.01.7-.5,1.63-.92,2.77-1.28,1.14-.35,2.3-.53,3.48-.53.15,0,.35.06.62.18.26.09.53.21.79.35s.48.31.66.48c.21.15.31.28.31.4,0,.29-.04.65-.13,1.06-.09.41-.16.79-.22,1.14l.09.57c1.67-.23,3.49-.44,5.46-.62,1.97-.21,3.78-.35,5.46-.44l-.18-1.5c-.32-.23-.76-.53-1.32-.88-.56-.38-1.26-.73-2.11-1.06.5-.32,1.07-.63,1.72-.92.67-.29,1.39-.51,2.16-.66.18-1.76.29-3.61.35-5.54.06-1.97.07-3.89.04-5.76,0-1.88-.04-3.64-.13-5.28-.09-1.67-.19-3.08-.31-4.22-.32-.23-.84-.54-1.54-.92-.7-.38-1.53-.76-2.46-1.14.76-.5,1.72-.94,2.86-1.32,1.17-.38,2.45-.57,3.83-.57.15,0,.35.06.62.18.29.09.57.21.84.35.29.15.54.31.75.48.21.15.31.28.31.4,0,.29-.06.7-.18,1.23-.12.53-.22.95-.31,1.28.06,1.2.09,2.6.09,4.18s-.04,3.15-.13,4.8c-.06,1.61-.15,3.18-.26,4.71-.12,1.53-.26,2.83-.44,3.92-.21,1.38-.63,2.43-1.28,3.17.41.15.82.35,1.23.62.44.23.66.45.66.66,0,.29-.04.65-.13,1.06-.09.41-.16.78-.22,1.1.03.85.04,1.82.04,2.9s-.04,2.13-.13,3.21c-.06,1.09-.15,2.1-.26,3.04-.09.97-.21,1.76-.35,2.38-.23,1.09-.69,1.83-1.36,2.24-.65.41-1.44.47-2.38.18l.09-1.32h-2.46c-.88.03-1.79.06-2.73.09-.91.06-1.82.12-2.73.18-.88.06-1.69.12-2.42.18-.29.53-.72.91-1.28,1.14-.56.23-1.17.28-1.85.13-.12-.88-.26-1.86-.44-2.95-.18-1.06-.38-2.13-.62-3.21-.21-1.09-.44-2.14-.7-3.17-.23-1.06-.48-1.99-.75-2.82ZM53.65,13.99c-.44.09-.98.18-1.63.26-.65.06-1.36.13-2.16.22-.76.06-1.55.12-2.38.18-.82.06-1.63.1-2.42.13.03.44.06.92.09,1.45.06.5.12,1.01.18,1.54.09.53.18,1.04.26,1.54.09.47.18.89.26,1.28.94.09,1.98.1,3.12.04,1.17-.06,2.36-.18,3.56-.35,1.23-.21,2.45-.48,3.65-.84,1.23-.35,2.38-.78,3.43-1.28.73.7,1.04,1.47.92,2.29-.09.79-.7,1.39-1.85,1.8-.94.35-2.02.66-3.26.92-1.23.26-2.52.47-3.87.62-1.32.15-2.64.23-3.96.26-1.32.03-2.54-.01-3.65-.13-.67-.09-1.17-.26-1.5-.53-.32-.26-.56-.65-.7-1.14-.15-.53-.29-1.11-.44-1.76-.15-.65-.28-1.31-.4-1.98-.12-.7-.22-1.39-.31-2.07s-.15-1.29-.18-1.85c-.82-.23-1.38-.66-1.67-1.28-.29-.65-.32-1.33-.09-2.07,1.14.12,2.3.19,3.48.22,1.2.03,2.36.03,3.48,0,1.14-.03,2.21-.09,3.21-.18,1-.09,1.88-.19,2.64-.31.18-.53.32-1.17.44-1.94.12-.76.19-1.38.22-1.85-1.55.23-3.31.43-5.28.57-1.94.12-3.73.15-5.37.09-.59-.03-1.09-.16-1.5-.4-.41-.23-.73-.53-.97-.88-.23-.35-.4-.75-.48-1.19-.09-.44-.09-.88,0-1.32,1.23.12,2.49.19,3.78.22,1.29.03,2.55.03,3.78,0,1.26-.03,2.45-.09,3.56-.18,1.14-.09,2.19-.19,3.12-.31.53-.44,1.42-.66,2.68-.66.12,0,.29.04.53.13.23.06.45.15.66.26.23.12.43.25.57.4.18.12.26.23.26.35,0,.23-.04.59-.13,1.06-.06.44-.15.81-.26,1.1-.09.76-.26,1.69-.53,2.77-.26,1.09-.56,2.04-.88,2.86-.23.59-.51,1.03-.84,1.32-.29.29-.7.48-1.23.57ZM64.87,37.27v-2.16c0-.73-.01-1.45-.04-2.16-.76.03-1.6.07-2.51.13-.88.03-1.8.09-2.77.18-.94.06-1.88.13-2.82.22-.91.06-1.76.13-2.55.22.12.76.21,1.51.26,2.24.09.73.16,1.42.22,2.07,1.64-.18,3.36-.34,5.15-.48,1.82-.12,3.51-.21,5.06-.26ZM96.46,1.89c.76-.5,1.72-.94,2.86-1.32,1.17-.38,2.45-.57,3.83-.57.15,0,.35.06.62.18.29.09.57.21.84.35.29.15.54.31.75.48.21.15.31.28.31.4,0,.29-.06.7-.18,1.23-.12.53-.22.95-.31,1.28.06,1.79.1,3.74.13,5.85.06,2.11.09,4.3.09,6.56,1.03-.06,2.02-.13,2.99-.22.97-.09,2.01-.22,3.12-.4.15.29.22.65.22,1.06,0,.38-.07.76-.22,1.14-.15.38-.4.73-.75,1.06-.35.29-.81.48-1.36.57-.62.15-1.25.25-1.89.31-.65.03-1.35.04-2.11.04-.03,1.73-.07,3.46-.13,5.19-.03,1.7-.09,3.36-.18,4.97-.06,1.58-.15,3.11-.26,4.58-.12,1.44-.25,2.77-.4,4-.18,1.58-.65,2.7-1.41,3.34-.76.67-1.61.87-2.55.57.23-2.96.41-6.16.53-9.59.12-3.46.16-6.92.13-10.38,0-3.46-.06-6.81-.18-10.03-.12-3.23-.28-6.09-.48-8.58-.32-.23-.84-.54-1.54-.92-.7-.38-1.53-.76-2.46-1.14ZM97.52,31.2c-1.41.41-2.96.78-4.66,1.1-1.7.29-3.46.54-5.28.75-1.79.21-3.59.35-5.41.44-1.79.09-3.51.13-5.15.13-.59,0-1.09-.12-1.5-.35-.38-.23-.7-.53-.97-.88-.23-.38-.4-.79-.48-1.23-.06-.47-.06-.92,0-1.36,1.5.06,2.93.1,4.31.13,1.41,0,2.82-.03,4.22-.09-.03-.85-.06-1.73-.09-2.64-.03-.94-.06-1.83-.09-2.68-.03-.88-.07-1.7-.13-2.46-.03-.76-.07-1.44-.13-2.02-.29-.23-.76-.53-1.41-.88-.65-.35-1.39-.7-2.24-1.06.67-.47,1.57-.87,2.68-1.19,1.14-.35,2.35-.53,3.61-.53.15,0,.34.04.57.13.26.09.51.21.75.35.26.12.48.25.66.4.21.15.31.28.31.4,0,.26-.04.65-.13,1.14-.06.47-.13.87-.22,1.19,0,.59-.01,1.26-.04,2.02v2.42c0,.85-.01,1.73-.04,2.64v2.55c2.32-.15,4.53-.38,6.64-.7,2.14-.32,4.18-.75,6.12-1.28.29.62.29,1.29,0,2.02-.26.7-.89,1.22-1.89,1.54ZM90.56,6.69c.41-.21.91-.4,1.5-.57.59-.21,1.17-.31,1.76-.31.12,0,.29.06.53.18.23.12.45.25.66.4.23.15.44.31.62.48.18.15.26.28.26.4,0,.23-.04.57-.13,1.01-.06.44-.15.81-.26,1.1,0,2.14-.09,4.18-.26,6.12-.15,1.91-.4,3.89-.75,5.94-.09.53-.28,1.06-.57,1.58-.26.53-.59.98-.97,1.36-.38.35-.81.62-1.28.79-.47.18-.94.19-1.41.04.32-3.14.51-5.94.57-8.4.06-2.46.06-4.66,0-6.6-1.64.35-3.52.66-5.63.92-2.08.23-4.36.32-6.82.26-1.17-.03-2.02-.45-2.55-1.28-.5-.82-.67-1.79-.53-2.9,3.11.23,5.91.31,8.4.22,2.52-.12,4.81-.37,6.86-.75ZM142.35,27.68c-.09-.09-.25-.19-.48-.31-.24-.12-.5-.23-.79-.35-.26-.15-.56-.28-.88-.4-.29-.12-.54-.22-.75-.31.44-.23.91-.45,1.41-.66.53-.21,1.06-.38,1.58-.53.56-.15,1.1-.26,1.63-.35.53-.09,1.01-.13,1.45-.13.21,0,.45.06.75.18.29.12.56.26.79.44.26.18.48.37.66.57.18.21.26.38.26.53,0,.18-.07.41-.22.7-.12.29-.25.6-.4.92,2.23.41,3.9,1.2,5.02,2.38,1.11,1.14,1.67,2.57,1.67,4.27,0,1.2-.24,2.27-.7,3.21-.44.94-1.06,1.73-1.85,2.38-.79.67-1.73,1.19-2.82,1.54-1.09.35-2.26.53-3.52.53s-2.43-.19-3.52-.57c-1.09-.35-2.04-.85-2.86-1.5-.79-.62-1.42-1.36-1.89-2.24-.44-.85-.66-1.79-.66-2.82s.18-1.97.53-2.73c.35-.79.81-1.48,1.36-2.07.59-.62,1.25-1.13,1.98-1.54.73-.44,1.48-.82,2.24-1.14ZM137.99,12.01c-.15-.12-.29-.22-.44-.31-.15-.09-.31-.18-.48-.26-.18-.09-.4-.18-.66-.26-.26-.12-.6-.26-1.01-.44.67-.47,1.5-.87,2.46-1.19,1-.32,1.97-.48,2.9-.48.15,0,.34.06.57.18.23.09.47.21.7.35.23.12.44.26.62.44.18.15.26.28.26.4,0,.26-.06.59-.18.97-.12.38-.24.73-.35,1.06-.12.97-.31,2.14-.57,3.52-.24,1.35-.51,2.64-.84,3.87,1.11-.15,2.18-.31,3.21-.48,1.03-.18,1.96-.35,2.82-.53.15.32.23.67.26,1.06.06.35.03.7-.09,1.06-.12.35-.34.67-.66.97-.29.26-.72.47-1.28.62-.94.23-2.16.47-3.65.7-1.5.21-3.1.4-4.8.57-1.67.18-3.36.32-5.06.44-1.7.12-3.21.18-4.53.18-.59,0-1.09-.1-1.5-.31-.38-.23-.69-.51-.92-.84-.21-.35-.34-.73-.4-1.14-.03-.44.03-.87.18-1.28,1.7.09,3.55.09,5.54,0-.32-1.58-.63-2.96-.92-4.14-.26-1.2-.51-2.13-.75-2.77-.65-.44-1.69-.89-3.12-1.36.62-.56,1.41-1.06,2.38-1.5.97-.44,1.89-.73,2.77-.88.15-.03.35,0,.62.09.26.06.53.15.79.26.26.09.5.21.7.35.21.15.32.28.35.4.03.29.03.65,0,1.06,0,.38-.03.75-.09,1.1.09.5.18,1.06.26,1.67.12.59.22,1.2.31,1.85.09.62.16,1.25.22,1.89.06.62.12,1.19.18,1.72.59-.06,1.17-.12,1.76-.18.62-.06,1.22-.12,1.8-.18.09-.79.16-1.57.22-2.33.09-.79.16-1.55.22-2.29.06-.73.1-1.41.13-2.02.03-.62.04-1.14.04-1.58ZM150.88,3.96c-.32-.23-.84-.54-1.54-.92s-1.53-.76-2.46-1.14c.76-.5,1.72-.94,2.86-1.32,1.17-.38,2.45-.57,3.83-.57.15,0,.35.06.62.18.29.09.57.21.84.35.29.15.54.31.75.48.21.15.31.28.31.4,0,.29-.06.7-.18,1.23-.12.53-.22.95-.31,1.28.06,1.2.09,2.71.09,4.53s-.04,3.64-.13,5.54c-.06,1.91-.15,3.74-.26,5.5-.12,1.76-.26,3.18-.44,4.27-.24,1.58-.72,2.71-1.45,3.39-.73.65-1.57.82-2.51.53.15-1.5.26-3.15.35-4.97.09-1.85.13-3.71.13-5.59-.65.15-1.31.28-1.98.4-.65.09-1.31.13-1.98.13-.56.03-1.04-.04-1.45-.22-.38-.21-.69-.47-.92-.79-.24-.35-.4-.73-.48-1.14-.09-.44-.09-.88,0-1.32,1.44.09,2.7.1,3.78.04,1.11-.06,2.13-.18,3.04-.35v-1.19c0-.38-.01-.76-.04-1.14-1.2.26-2.43.4-3.7.4-.56.03-1.04-.04-1.45-.22-.38-.21-.69-.47-.92-.79-.24-.35-.4-.73-.48-1.14-.09-.44-.09-.88,0-1.32,1.41.09,2.61.13,3.61.13,1.03-.03,1.96-.12,2.82-.26-.06-.85-.12-1.64-.18-2.38-.03-.73-.07-1.39-.13-1.98ZM143.45,7.35c-1.23.18-2.6.37-4.09.57-1.5.18-3.01.34-4.53.48-1.53.12-3.02.21-4.49.26-1.47.06-2.8.06-4,0-.59-.03-1.09-.15-1.5-.35-.38-.23-.69-.51-.92-.84-.21-.32-.34-.69-.4-1.1-.03-.41.03-.82.18-1.23,4.11.15,7.92.07,11.44-.22,3.55-.29,7.01-.73,10.38-1.32.12.29.18.65.18,1.06.03.38-.04.76-.22,1.14-.15.35-.38.67-.7.97-.32.29-.76.48-1.32.57ZM149.7,34.63c0-1.03-.43-2.01-1.28-2.95-.82-.94-2.11-1.57-3.87-1.89-1.29.59-2.27,1.33-2.95,2.24-.68.91-1.01,1.92-1.01,3.04,0,1.2.42,2.2,1.28,2.99.85.79,1.94,1.19,3.26,1.19,1.41,0,2.52-.44,3.34-1.32.82-.85,1.23-1.95,1.23-3.3ZM183.3,32.74c-1.41.41-2.96.78-4.66,1.1-1.7.29-3.46.54-5.28.75-1.79.21-3.59.35-5.41.44-1.79.09-3.51.13-5.15.13-.59,0-1.08-.1-1.5-.31-.38-.23-.7-.53-.97-.88-.23-.35-.4-.75-.48-1.19-.06-.44-.06-.88,0-1.32,3.46.15,6.81.15,10.03,0,0-.85-.01-1.66-.04-2.42-.03-.79-.07-1.58-.13-2.38-1.96-.35-3.52-1.11-4.66-2.29s-1.72-2.57-1.72-4.18c0-.94.21-1.82.62-2.64.41-.85.98-1.58,1.72-2.2.76-.65,1.67-1.14,2.73-1.5,1.06-.38,2.23-.57,3.52-.57s2.46.19,3.52.57c1.06.35,1.95.84,2.68,1.45.76.62,1.35,1.35,1.76,2.2.41.82.62,1.7.62,2.64,0,1.61-.56,3.01-1.67,4.18-1.09,1.14-2.58,1.91-4.49,2.29,0,.73-.01,1.5-.04,2.29,0,.76-.03,1.51-.09,2.24,1.97-.18,3.86-.41,5.68-.7,1.85-.29,3.62-.67,5.32-1.14.29.62.29,1.26,0,1.94-.26.67-.89,1.17-1.89,1.5ZM182.25,1.89c.76-.5,1.72-.94,2.86-1.32,1.17-.38,2.45-.57,3.83-.57.15,0,.35.06.62.18.29.09.57.21.84.35.29.15.54.31.75.48.21.15.31.28.31.4,0,.29-.06.7-.18,1.23-.12.53-.22.95-.31,1.28.06,1.99.12,4.18.18,6.56.06,2.38.07,4.84.04,7.39,1.03-.06,2.02-.13,2.99-.22.97-.09,2.01-.22,3.12-.4.15.29.22.65.22,1.06,0,.38-.07.76-.22,1.14-.15.38-.4.73-.75,1.06-.35.29-.81.48-1.36.57-.62.15-1.25.25-1.89.31-.65.03-1.35.04-2.11.04-.06,3.2-.16,6.29-.31,9.28-.15,2.99-.37,5.63-.66,7.92-.18,1.58-.65,2.7-1.41,3.34-.76.67-1.61.87-2.55.57.24-2.96.41-6.16.53-9.59.12-3.46.16-6.92.13-10.38,0-3.46-.06-6.81-.18-10.03-.12-3.23-.28-6.09-.48-8.58-.32-.23-.84-.54-1.54-.92-.7-.38-1.52-.76-2.46-1.14ZM180.53,11.09c-1.29.23-2.68.43-4.18.57s-3.02.26-4.58.35c-1.55.09-3.11.15-4.66.18-1.53,0-2.99-.03-4.4-.09-1.17-.06-1.99-.45-2.46-1.19-.44-.73-.53-1.54-.26-2.42,1.61.12,3.21.19,4.8.22,1.61.03,3.21.01,4.8-.04-.03-.59-.07-1.1-.13-1.54-.06-.47-.12-.91-.18-1.32-.32-.23-.82-.5-1.5-.79-.67-.32-1.45-.65-2.33-.97.7-.5,1.58-.92,2.64-1.28,1.09-.35,2.26-.53,3.52-.53.15,0,.35.06.62.18.29.09.57.21.84.35.29.15.54.31.75.48.21.15.31.28.31.4,0,.29-.06.65-.18,1.06-.09.41-.19.79-.31,1.14.03.47.04.91.04,1.32v1.28c1.5-.09,2.99-.21,4.49-.35,1.5-.18,2.99-.38,4.49-.62.15.32.22.67.22,1.06s-.07.75-.22,1.1c-.15.35-.4.66-.75.92-.35.26-.81.44-1.36.53ZM171.78,23.54c1.35,0,2.42-.29,3.21-.88.82-.62,1.23-1.48,1.23-2.6,0-1.03-.41-1.86-1.23-2.51-.79-.67-1.88-1.01-3.26-1.01-1.23,0-2.24.35-3.04,1.06-.76.7-1.14,1.57-1.14,2.6,0,1.11.4,1.95,1.19,2.51.79.56,1.8.84,3.04.84ZM224.26,10.3c-1.03.15-2.17.29-3.43.44-1.23.15-2.52.28-3.87.4-1.35.09-2.7.18-4.05.26-1.35.06-2.62.1-3.83.13.06.5.1,1,.13,1.5.06.5.12,1.06.18,1.67.76.03,1.67.04,2.73.04,1.06-.03,2.17-.07,3.34-.13,1.17-.06,2.36-.13,3.56-.22,1.23-.12,2.38-.25,3.43-.4,1.09-.18,2.05-.35,2.9-.53.88-.21,1.57-.43,2.07-.66.73.7,1.06,1.44.97,2.2-.09.73-.72,1.26-1.89,1.58-.94.26-2.23.5-3.87.7-1.64.18-3.39.32-5.24.44-1.82.09-3.61.13-5.37.13s-3.15-.06-4.27-.18c-.67-.06-1.23-.28-1.67-.66-.41-.41-.66-.88-.75-1.41-.18-.91-.32-1.66-.44-2.24-.09-.59-.19-1.26-.31-2.02-.79-.23-1.28-.66-1.45-1.28-.15-.65-.1-1.35.13-2.11,1.47.18,3.05.28,4.75.31,1.7.03,3.39.01,5.06-.04,1.7-.06,3.33-.15,4.88-.26,1.58-.15,2.98-.31,4.18-.48.06-.5.09-.94.09-1.32s.01-.81.04-1.28c-.53.09-1.22.18-2.07.26-.82.06-1.75.13-2.77.22-1.03.09-2.1.18-3.21.26-1.11.09-2.18.16-3.21.22-1.03.03-1.98.06-2.86.09-.88.03-1.58.03-2.11,0-1.17-.06-1.97-.45-2.38-1.19-.41-.73-.54-1.54-.4-2.42,1.23.15,2.77.22,4.62.22s3.71-.04,5.59-.13c1.91-.09,3.7-.19,5.37-.31,1.7-.15,3.02-.29,3.96-.44.24-.15.57-.29,1.01-.44s.95-.22,1.54-.22c.12,0,.29.04.53.13.26.09.53.21.79.35.26.12.48.25.66.4.21.12.31.23.31.35,0,.23-.07.59-.22,1.06-.15.44-.28.81-.4,1.1-.09.53-.21,1.14-.35,1.85-.12.7-.26,1.36-.44,1.98-.35,1.2-1.01,1.89-1.98,2.07ZM208.03,39.6c-.15-.88-.28-1.69-.4-2.42-.12-.7-.25-1.44-.4-2.2-.82-.23-1.32-.65-1.5-1.23-.15-.62-.1-1.31.13-2.07,1.14.18,2.49.28,4.05.31,1.58,0,3.18-.03,4.8-.09,1.61-.09,3.14-.21,4.58-.35,1.44-.15,2.6-.31,3.48-.48.06-.53.1-.97.13-1.32.03-.38.06-.81.09-1.28-.76.12-1.79.25-3.08.4-1.26.12-2.6.23-4,.35-1.38.12-2.71.21-4,.26-1.29.06-2.35.07-3.17.04-1.17-.06-1.96-.44-2.38-1.14-.41-.73-.54-1.54-.4-2.42,1.23.15,2.67.22,4.31.22s3.29-.04,4.93-.13c1.64-.09,3.2-.19,4.66-.31,1.5-.15,2.71-.29,3.65-.44.24-.15.57-.29,1.01-.44s.95-.22,1.54-.22c.12,0,.29.04.53.13.26.09.53.21.79.35.26.12.48.25.66.4.21.12.31.23.31.35,0,.23-.07.59-.22,1.06-.15.44-.28.81-.4,1.1-.09.53-.22,1.13-.4,1.8-.15.67-.31,1.32-.48,1.94-.32,1.17-.98,1.86-1.98,2.07-.62.12-1.45.25-2.51.4-1.03.12-2.16.23-3.39.35-1.2.09-2.45.19-3.74.31-1.29.09-2.48.15-3.56.18.09.59.16,1.19.22,1.8.06.62.12,1.23.18,1.85,1.14.06,2.51.06,4.09,0s3.17-.16,4.75-.31c1.61-.15,3.11-.35,4.49-.62,1.38-.26,2.43-.57,3.17-.92.35.35.62.73.79,1.14.18.41.24.79.18,1.14-.06.38-.25.72-.57,1.01-.29.32-.73.56-1.32.7-.94.26-2.16.47-3.65.62-1.47.18-3.02.29-4.66.35-1.64.06-3.26.07-4.84.04s-2.93-.1-4.05-.22c-.67-.06-1.23-.29-1.67-.7-.41-.38-.66-.84-.75-1.36ZM230.78,21.56c-1.91.38-4.11.72-6.6,1.01-2.46.26-5,.5-7.61.7-2.58.18-5.12.31-7.61.4-2.49.09-4.71.12-6.64.09-1.17-.03-1.99-.41-2.46-1.14-.47-.73-.63-1.55-.48-2.46,2.7.15,5.53.21,8.49.18,2.96-.06,5.91-.18,8.84-.35,2.96-.21,5.82-.45,8.58-.75,2.76-.32,5.27-.67,7.52-1.06.15.29.21.62.18.97,0,.35-.09.69-.26,1.01-.15.32-.38.62-.7.88-.32.26-.73.44-1.23.53ZM256.64,6.12c-.32-.23-.85-.51-1.58-.84-.7-.32-1.44-.6-2.2-.84.38-.23.87-.47,1.45-.7.59-.23,1.2-.44,1.85-.62.68-.18,1.35-.31,2.02-.4.7-.12,1.35-.18,1.94-.18.21,0,.46.07.75.22.32.15.63.32.92.53.29.21.53.43.7.66.21.23.31.44.31.62,0,.21-.07.47-.22.79s-.34.66-.57,1.01c2.23.59,3.92,1.55,5.06,2.9,1.14,1.32,1.72,2.85,1.72,4.58,0,1.32-.23,2.49-.7,3.52-.44,1.03-1.07,1.89-1.89,2.6-.79.7-1.76,1.25-2.9,1.63-1.14.35-2.42.53-3.83.53s-2.68-.19-3.83-.57c-1.14-.41-2.13-.97-2.95-1.67-.82-.7-1.47-1.54-1.94-2.51-.44-1-.66-2.08-.66-3.26,0-1.97.6-3.67,1.8-5.1,1.2-1.44,2.79-2.41,4.75-2.9ZM270.68,1.89c.76-.5,1.72-.94,2.86-1.32,1.17-.38,2.45-.57,3.83-.57.15,0,.35.06.62.18.29.09.57.21.84.35.29.15.54.31.75.48.21.15.31.28.31.4,0,.29-.06.7-.18,1.23-.12.53-.22.95-.31,1.28.06,1.64.1,3.43.13,5.37.06,1.94.09,3.95.09,6.03.03,2.05.03,4.15,0,6.29-.03,2.14-.09,4.22-.18,6.25s-.2,3.96-.35,5.81c-.12,1.82-.26,3.48-.44,4.97-.18,1.58-.65,2.7-1.41,3.34-.76.67-1.61.87-2.55.57.23-2.96.41-6.16.53-9.59.12-3.46.16-6.92.13-10.38,0-3.46-.06-6.81-.18-10.03-.12-3.23-.28-6.09-.48-8.58-.32-.23-.84-.54-1.54-.92-.7-.38-1.52-.76-2.46-1.14ZM271.73,26.31c-1.23.41-2.65.76-4.27,1.06-1.58.26-3.26.51-5.02.75-.03,1.55-.15,3.2-.35,4.93-.2,1.73-.45,3.39-.75,4.97-.24,1.32-.76,2.23-1.58,2.73-.79.53-1.66.67-2.6.44.29-2.64.48-4.96.57-6.95.12-2.02.16-3.9.13-5.63-1.5.12-2.96.21-4.4.26-1.44.06-2.77.09-4,.09-.59,0-1.08-.12-1.5-.35-.38-.23-.7-.53-.97-.88-.24-.38-.4-.79-.48-1.23-.06-.47-.06-.92,0-1.36,2.4.09,4.83.1,7.26.04,2.46-.06,4.85-.19,7.17-.4,2.35-.21,4.59-.47,6.73-.79,2.14-.32,4.12-.73,5.94-1.23.29.62.29,1.29,0,2.02-.26.7-.9,1.22-1.89,1.54ZM264.34,13.99c0-1.23-.45-2.36-1.36-3.39-.88-1.03-2.24-1.67-4.09-1.94-1.5.41-2.6,1.1-3.3,2.07-.7.97-1.06,2.08-1.06,3.34,0,1.44.45,2.57,1.36,3.39.94.82,2.11,1.23,3.52,1.23,1.5,0,2.68-.43,3.56-1.28.91-.85,1.36-1.99,1.36-3.43ZM313.93,3.96c-.32-.23-.79-.54-1.41-.92s-1.33-.76-2.16-1.14c.64-.5,1.48-.94,2.51-1.32,1.03-.38,2.23-.57,3.61-.57.15,0,.35.06.62.18.29.09.57.21.84.35.29.15.54.31.75.48.2.15.31.28.31.4,0,.29-.06.7-.18,1.23-.09.53-.19.95-.31,1.28.06,1.64.1,3.43.13,5.37.06,1.94.09,3.95.09,6.03.03,2.05.03,4.14,0,6.25-.03,2.11-.09,4.18-.18,6.2-.06,2.02-.16,3.96-.31,5.81-.12,1.85-.26,3.52-.44,5.02-.21,1.58-.68,2.7-1.41,3.34-.7.67-1.53.87-2.46.57.26-3.2.44-6.67.53-10.43.12-3.75.16-7.51.13-11.26-.7.15-1.44.28-2.2.4-.73.12-1.48.21-2.24.26-.06,2.49-.15,4.91-.26,7.26-.09,2.32-.25,4.47-.48,6.47-.15,1.58-.6,2.7-1.36,3.34-.73.67-1.57.87-2.51.57.2-2.73.35-5.54.44-8.45.09-2.9.12-5.76.09-8.58-.03-2.82-.1-5.53-.22-8.14-.12-2.61-.29-4.99-.53-7.13-.32-.23-.79-.54-1.41-.92s-1.32-.76-2.11-1.14c.62-.5,1.44-.94,2.46-1.32,1.06-.38,2.26-.57,3.61-.57.15,0,.35.06.62.18.29.09.57.21.84.35.29.15.54.31.75.48.21.15.31.28.31.4,0,.29-.06.7-.18,1.23-.09.53-.19.95-.31,1.28.09,1.76.15,3.59.18,5.5.06,1.88.09,3.78.09,5.72.76-.06,1.5-.12,2.2-.18.73-.09,1.47-.19,2.2-.31-.06-2.58-.15-5.02-.26-7.3-.09-2.32-.21-4.4-.35-6.25ZM294.65,31.33c-1.23,0-2.35-.18-3.34-.53-1-.35-1.85-.85-2.55-1.5s-1.25-1.39-1.63-2.24c-.38-.88-.57-1.83-.57-2.86s.19-2.02.57-2.9c.38-.91.92-1.69,1.63-2.33.7-.67,1.55-1.19,2.55-1.54,1-.38,2.11-.57,3.34-.57s2.35.19,3.34.57c1,.35,1.85.85,2.55,1.5.7.65,1.25,1.42,1.63,2.33.38.88.57,1.85.57,2.9s-.19,1.98-.57,2.86c-.38.88-.92,1.64-1.63,2.29-.7.62-1.55,1.11-2.55,1.5-1,.35-2.11.53-3.34.53ZM291.88,8.45c-.32-.23-.82-.5-1.5-.79-.67-.32-1.45-.65-2.33-.97.7-.5,1.63-.95,2.77-1.36,1.17-.44,2.39-.66,3.65-.66.15,0,.35.06.62.18.29.09.57.21.84.35s.48.31.66.48c.21.15.31.28.31.4,0,.29-.06.65-.18,1.06-.09.41-.19.79-.31,1.14v3.43c1.47-.12,2.86-.26,4.18-.44,1.35-.21,2.55-.44,3.61-.7.15.32.25.69.31,1.1.06.38.03.76-.09,1.14-.09.38-.28.73-.57,1.06-.29.29-.72.5-1.28.62-.94.21-2.16.38-3.65.53s-3.05.28-4.66.4c-1.58.09-3.12.16-4.62.22-1.5.03-2.7.03-3.61,0-.59,0-1.11-.12-1.58-.35-.44-.23-.81-.53-1.1-.88-.26-.35-.46-.75-.57-1.19-.09-.47-.06-.95.09-1.45,1.29.15,2.73.23,4.31.26,1.61.03,3.3.01,5.06-.04-.06-.67-.12-1.31-.18-1.89-.06-.59-.12-1.13-.18-1.63ZM294.52,28.03c1.35,0,2.36-.35,3.04-1.06.67-.7,1.01-1.67,1.01-2.9,0-1.11-.34-2.05-1.01-2.82-.68-.76-1.7-1.14-3.08-1.14-1.23,0-2.17.4-2.82,1.19-.64.79-.97,1.76-.97,2.9,0,1.23.32,2.19.97,2.86.68.65,1.63.97,2.86.97ZM348.86,9.86c-.29-.26-.73-.59-1.32-.97-.56-.38-1.25-.78-2.07-1.19.38-.21.82-.4,1.32-.57.53-.18,1.07-.32,1.63-.44.59-.12,1.19-.19,1.8-.22.62-.06,1.2-.04,1.76.04.18.03.4.12.66.26.26.12.51.26.75.44.23.18.44.35.62.53s.25.32.22.44c-.06.29-.18.63-.35,1.01-.15.38-.34.75-.57,1.1-.29,1.26-.63,2.54-1.01,3.83-.35,1.26-.75,2.51-1.19,3.74.5.41,1.03.88,1.58,1.41.59.53,1.16,1.1,1.72,1.72.56.59,1.08,1.19,1.58,1.8.5.62.92,1.2,1.28,1.76.5.85.6,1.69.31,2.51-.26.82-1.14,1.45-2.64,1.89-.5-1.41-1.22-2.79-2.16-4.14-.94-1.35-1.94-2.58-2.99-3.7-.68,1.53-1.42,2.95-2.24,4.27-.79,1.32-1.66,2.48-2.6,3.48-.68.73-1.45,1.17-2.33,1.32-.88.12-1.63-.07-2.24-.57.41-.65.81-1.28,1.19-1.89.38-.62.75-1.22,1.1-1.8-.44-1.03-.92-1.98-1.45-2.86-.5-.91-1.09-1.77-1.76-2.6-1.35,2.46-2.92,4.75-4.71,6.86-.65.76-1.41,1.2-2.29,1.32-.85.12-1.58-.07-2.2-.57,1.26-1.73,2.33-3.34,3.21-4.84s1.63-2.9,2.24-4.22c.62-1.35,1.11-2.64,1.5-3.87.41-1.23.78-2.43,1.1-3.61-.29-.26-.73-.59-1.32-.97-.56-.38-1.25-.78-2.07-1.19.38-.21.82-.4,1.32-.57.53-.18,1.07-.32,1.63-.44.59-.12,1.19-.19,1.8-.22.62-.06,1.2-.04,1.76.04.18.03.4.12.66.26.26.12.51.26.75.44.23.18.44.35.62.53.18.18.25.32.22.44-.06.29-.18.63-.35,1.01-.15.38-.34.75-.57,1.1-.23.94-.51,1.86-.84,2.77-.29.91-.62,1.79-.97,2.64.7.7,1.36,1.45,1.98,2.24.65.76,1.26,1.57,1.85,2.42,1.11-2.2,1.99-4.28,2.64-6.25.64-1.99,1.13-3.97,1.45-5.94ZM355.15,1.89c.76-.5,1.75-.94,2.95-1.32,1.2-.38,2.38-.57,3.52-.57.15,0,.35.06.62.18.26.09.51.21.75.35.26.15.48.31.66.48.18.15.26.28.26.4,0,.29-.06.7-.18,1.23-.12.53-.22.95-.31,1.28.06,1.82.1,3.8.13,5.94.06,2.14.1,4.37.13,6.69.88-.06,1.74-.13,2.6-.22.88-.12,1.82-.25,2.82-.4.15.29.22.65.22,1.06,0,.38-.07.76-.22,1.14-.15.38-.4.73-.75,1.06-.35.29-.81.48-1.36.57-.53.12-1.07.21-1.63.26-.53.03-1.09.06-1.67.09-.03,3.46-.1,6.82-.22,10.08-.09,3.26-.25,6.1-.48,8.54-.15,1.58-.59,2.68-1.32,3.3-.73.65-1.57.82-2.51.53.18-2.96.31-6.16.4-9.59.09-3.46.12-6.92.09-10.38-.03-3.46-.1-6.81-.22-10.03-.12-3.23-.28-6.09-.48-8.58-.32-.23-.81-.54-1.45-.92-.62-.38-1.39-.76-2.33-1.14ZM384.71,4.05c-.41-.23-.94-.47-1.58-.7-.65-.23-1.35-.47-2.11-.7.38-.23.87-.47,1.45-.7.62-.23,1.26-.44,1.94-.62.67-.18,1.36-.31,2.07-.4.7-.12,1.35-.18,1.94-.18.21,0,.45.07.75.22.32.15.63.32.92.53.29.21.53.43.7.66.21.23.31.44.31.62s-.07.4-.22.66c-.12.26-.28.54-.48.84,2.32.56,4.08,1.53,5.28,2.9,1.2,1.35,1.8,2.8,1.8,4.36,0,1.2-.23,2.29-.7,3.26-.47.97-1.14,1.8-2.02,2.51-.85.67-1.89,1.2-3.12,1.58-1.2.38-2.55.57-4.05.57s-2.86-.19-4.09-.57c-1.2-.38-2.24-.91-3.12-1.58-.88-.7-1.55-1.51-2.02-2.42-.47-.94-.7-1.97-.7-3.08,0-1,.18-1.94.53-2.82.38-.88.88-1.64,1.5-2.29.64-.67,1.39-1.23,2.24-1.67.88-.47,1.82-.79,2.82-.97ZM402.36,23.19c-1.5.29-3.15.57-4.97.84-1.82.26-3.73.5-5.72.7.03,1.03.03,2.08,0,3.17-.03,1.06-.09,2.08-.18,3.08-.12,1.35-.57,2.35-1.36,2.99-.79.65-1.66.85-2.6.62.03-1.55-.02-3.15-.13-4.8-.09-1.64-.21-3.18-.35-4.62-2.41.21-4.75.37-7.04.48-2.26.09-4.3.1-6.12.04-.59,0-1.09-.12-1.5-.35-.41-.26-.73-.59-.97-.97-.24-.41-.4-.85-.48-1.32s-.09-.92,0-1.36c2.7.15,5.53.21,8.49.18,2.96-.06,5.91-.19,8.84-.4,2.96-.21,5.82-.45,8.58-.75,2.76-.32,5.27-.67,7.52-1.06.15.29.2.63.18,1.01,0,.35-.09.7-.26,1.06-.15.32-.38.63-.7.92-.32.26-.73.44-1.23.53ZM377.94,32.34c-.32-.23-.76-.51-1.32-.84-.53-.32-1.23-.66-2.11-1.01.7-.5,1.63-.91,2.77-1.23,1.17-.35,2.35-.53,3.52-.53.15,0,.35.06.62.18.26.09.53.21.79.35.26.15.48.31.66.48.2.15.31.28.31.4,0,.29-.04.65-.13,1.06-.06.41-.13.78-.22,1.1.41,1.7.69,3.56.84,5.59.94.09,2.13.1,3.56.04,1.47-.03,2.96-.12,4.49-.26,1.55-.15,3.05-.34,4.49-.57,1.47-.26,2.68-.59,3.65-.97.29.35.51.73.66,1.14.15.41.19.81.13,1.19-.06.38-.24.73-.53,1.06-.26.32-.66.56-1.19.7-.94.29-2.14.53-3.61.7-1.47.21-3.01.35-4.62.44-1.61.09-3.21.12-4.8.09-1.55-.03-2.89-.13-4-.31-.67-.09-1.2-.26-1.58-.53-.35-.23-.56-.6-.62-1.1-.21-1.38-.44-2.63-.7-3.74s-.62-2.26-1.06-3.43ZM392.98,11.53c0-1.06-.48-2.05-1.45-2.99-.94-.94-2.44-1.57-4.49-1.89-1.58.35-2.8,1-3.65,1.94-.85.91-1.28,1.92-1.28,3.04,0,1.32.45,2.41,1.36,3.26.94.82,2.29,1.23,4.05,1.23,1.85,0,3.21-.43,4.09-1.28.91-.88,1.36-1.98,1.36-3.3ZM447.23,3.96c-.32-.23-.79-.54-1.41-.92s-1.33-.76-2.16-1.14c.65-.5,1.48-.94,2.51-1.32,1.03-.38,2.23-.57,3.61-.57.15,0,.35.06.62.18.29.09.57.21.84.35.29.15.54.31.75.48.21.15.31.28.31.4,0,.29-.06.7-.18,1.23-.09.53-.19.95-.31,1.28.06,1.64.1,3.43.13,5.37.06,1.94.09,3.95.09,6.03.03,2.05.03,4.14,0,6.25-.03,2.11-.09,4.18-.18,6.2-.06,2.02-.16,3.96-.31,5.81-.12,1.85-.26,3.52-.44,5.02-.2,1.58-.67,2.7-1.41,3.34-.7.67-1.52.87-2.46.57.15-1.73.26-3.56.35-5.5.09-1.97.16-3.96.22-5.98.06-2.02.09-4.08.09-6.16.03-2.08.03-4.12,0-6.12-.82.15-1.64.29-2.46.44-.82.12-1.66.21-2.51.26,0,2.85-.07,5.62-.22,8.32-.12,2.67-.29,5.15-.53,7.44-.15,1.58-.6,2.7-1.36,3.34-.73.67-1.57.87-2.51.57.21-2.73.35-5.54.44-8.45.09-2.9.12-5.76.09-8.58-.03-2.82-.1-5.53-.22-8.14-.12-2.61-.29-4.99-.53-7.13-.32-.23-.79-.54-1.41-.92-.62-.38-1.32-.76-2.11-1.14.62-.5,1.44-.94,2.46-1.32,1.06-.38,2.26-.57,3.61-.57.15,0,.35.06.62.18.29.09.57.21.84.35.29.15.54.31.75.48.21.15.31.28.31.4,0,.29-.06.7-.18,1.23-.09.53-.19.95-.31,1.28.06,1.44.12,2.93.18,4.49.06,1.53.09,3.09.09,4.71,1.7-.09,3.33-.26,4.88-.53-.06-2.2-.13-4.27-.22-6.2s-.2-3.7-.35-5.28ZM432.23,11.92c-2.14.35-4.27.57-6.38.66,0,1.03.01,2.16.04,3.39.03,1.2.06,2.42.09,3.65.06,1.2.12,2.38.18,3.52.09,1.11.18,2.1.26,2.95,1.44.03,2.98-.1,4.62-.4,1.67-.29,3.43-.78,5.28-1.45.12.23.21.54.26.92.09.35.1.72.04,1.1-.06.35-.22.7-.48,1.06-.26.35-.67.63-1.23.84-.59.23-1.28.45-2.07.66-.76.21-1.61.38-2.55.53-.91.12-1.86.21-2.86.26-1,.06-1.99.07-2.99.04-1.29-.09-2.02-.65-2.2-1.67-.15-.97-.28-2.1-.4-3.39-.12-1.32-.23-2.67-.35-4.05-.09-1.41-.16-2.8-.22-4.18-.06-1.38-.1-2.65-.13-3.83-1.17-.06-1.99-.47-2.46-1.23-.44-.76-.53-1.57-.26-2.42,1.44.09,2.79.13,4.05.13s2.57-.03,3.83-.09c1.26-.06,2.54-.16,3.83-.31,1.32-.15,2.73-.32,4.22-.53.15.32.22.69.22,1.1.03.38-.04.76-.22,1.14-.15.38-.4.72-.75,1.01-.35.29-.81.48-1.36.57ZM466.94,25.74c-1.23,0-2.36-.16-3.39-.48-1.03-.35-1.91-.82-2.64-1.41-.7-.59-1.26-1.28-1.67-2.07-.38-.82-.57-1.7-.57-2.64s.19-1.77.57-2.6c.41-.82.97-1.54,1.67-2.16.73-.65,1.61-1.14,2.64-1.5,1.03-.38,2.16-.57,3.39-.57s2.36.19,3.39.57c1.03.35,1.89.84,2.6,1.45.73.62,1.29,1.33,1.67,2.16.41.82.62,1.69.62,2.6s-.21,1.82-.62,2.64c-.38.79-.94,1.5-1.67,2.11-.7.59-1.57,1.06-2.6,1.41-1.03.32-2.16.48-3.39.48ZM486.39,3.92c.09,1.7.15,3.49.18,5.37.06,1.85.07,3.74.04,5.68.91-.06,1.79-.13,2.64-.22.88-.12,1.82-.25,2.82-.4.15.29.22.65.22,1.06,0,.38-.07.76-.22,1.14-.15.38-.4.72-.75,1.01-.35.29-.81.5-1.36.62-.53.09-1.08.16-1.67.22-.56.06-1.14.09-1.76.09-.06,1.88-.16,3.71-.31,5.5-.12,1.76-.29,3.42-.53,4.97-.23,1.55-.72,2.67-1.45,3.34-.73.65-1.57.82-2.51.53.23-2.46.4-5,.48-7.61.12-2.61.18-5.18.18-7.7s-.06-4.93-.18-7.22c-.12-2.32-.28-4.43-.48-6.34-.32-.23-.85-.54-1.58-.92-.7-.38-1.52-.76-2.46-1.14.76-.5,1.72-.94,2.86-1.32,1.17-.38,2.45-.57,3.83-.57.15,0,.35.06.62.18.29.09.57.21.84.35.29.15.54.31.75.48.21.15.31.28.31.4,0,.29-.06.7-.18,1.23-.09.53-.19.95-.31,1.28ZM465.66,32.16c-.32-.23-.75-.51-1.28-.84-.53-.35-1.22-.69-2.07-1.01.68-.5,1.58-.92,2.73-1.28,1.17-.35,2.33-.53,3.48-.53.18,0,.4.06.66.18.26.09.51.21.75.35.26.15.48.31.66.48.21.15.31.28.31.4,0,.29-.04.65-.13,1.06-.06.41-.12.79-.18,1.14.44,1.82.75,3.71.92,5.68.94.09,2.1.12,3.48.09,1.41-.03,2.85-.12,4.31-.26,1.5-.15,2.93-.34,4.31-.57,1.41-.26,2.6-.59,3.56-.97.29.35.51.73.66,1.14.15.41.19.81.13,1.19-.06.38-.23.73-.53,1.06-.26.32-.66.56-1.19.7-.94.29-2.13.53-3.56.7-1.41.21-2.89.35-4.44.44-1.55.09-3.09.12-4.62.09-1.5-.03-2.8-.13-3.92-.31-.67-.09-1.19-.26-1.54-.53-.35-.23-.57-.6-.66-1.1-.21-1.38-.45-2.63-.75-3.74-.29-1.14-.66-2.33-1.1-3.56ZM475.52,9.9c-1.29.23-2.68.43-4.18.57s-3.02.26-4.58.35c-1.55.09-3.11.15-4.66.18-1.52,0-2.99-.03-4.4-.09-1.17-.06-1.99-.41-2.46-1.06-.44-.67-.53-1.45-.26-2.33,3.17.23,6.32.28,9.46.13-.09-1.35-.2-2.48-.35-3.39-.32-.23-.82-.5-1.5-.79-.67-.32-1.45-.65-2.33-.97.7-.5,1.58-.92,2.64-1.28,1.09-.35,2.26-.53,3.52-.53.15,0,.35.06.62.18.29.09.57.21.84.35.29.15.54.31.75.48.21.15.31.28.31.4,0,.29-.06.65-.18,1.06-.09.41-.19.79-.31,1.14.03.5.04,1.01.04,1.54v1.58c1.56-.12,3.08-.26,4.58-.44,1.53-.18,3.05-.38,4.58-.62.15.32.22.67.22,1.06,0,.35-.07.7-.22,1.06-.15.32-.4.62-.75.88-.35.26-.81.44-1.36.53ZM466.8,22.44c1.26,0,2.26-.31,2.99-.92.76-.65,1.14-1.48,1.14-2.51,0-.94-.38-1.75-1.14-2.42-.73-.67-1.74-1.01-3.04-1.01-1.11,0-2.04.35-2.77,1.06-.73.7-1.1,1.54-1.1,2.51,0,1.06.37,1.88,1.1,2.46.76.56,1.7.84,2.82.84ZM525.98,19.49c-1.64.32-3.49.63-5.54.92-2.05.26-4.18.51-6.38.75.06,1.03.07,2.02.04,2.99,0,.97-.03,1.8-.09,2.51-.09.7-.24,1.26-.44,1.67.82-.09,1.6-.18,2.33-.26.76-.09,1.48-.21,2.16-.35.23-.21.59-.37,1.06-.48.47-.15,1-.22,1.58-.22.12,0,.29.04.53.13.23.09.45.19.66.31.23.12.44.25.62.4.18.12.26.23.26.35,0,.23-.04.59-.13,1.06-.09.44-.18.79-.26,1.06,0,.85-.03,1.76-.09,2.73-.03.97-.07,1.92-.13,2.86-.06.91-.13,1.76-.22,2.55s-.19,1.42-.31,1.89c-.24,1.09-.72,1.83-1.45,2.24-.73.44-1.57.51-2.51.22.09-.79.15-1.69.18-2.68.06-.97.09-1.97.09-2.99s-.01-2.05-.04-3.08c0-1.03-.03-1.97-.09-2.82-2.29.41-4.55.73-6.78.97-2.2.23-4.53.32-7,.26-.59,0-1.1-.12-1.54-.35-.41-.23-.75-.54-1.01-.92-.23-.38-.41-.79-.53-1.23-.09-.47-.09-.92,0-1.36,1.5.12,2.98.18,4.44.18,1.5-.03,2.95-.07,4.36-.13-.03-1.14-.07-2.33-.13-3.56-.03-1.23-.1-2.41-.22-3.52-2.2.18-4.33.31-6.38.4-2.02.09-3.86.1-5.5.04-.59,0-1.08-.12-1.5-.35-.41-.26-.73-.59-.97-.97-.24-.41-.4-.85-.48-1.32-.09-.47-.09-.92,0-1.36,1.79.09,3.64.15,5.54.18,1.91,0,3.84-.03,5.81-.09,1.97-.06,3.92-.15,5.85-.26,1.96-.15,3.87-.31,5.72-.48.21-1.73.34-3.55.4-5.46.09-1.94.09-3.7,0-5.28-1.14.18-2.45.37-3.92.57-1.44.18-2.92.34-4.44.48-1.5.15-2.99.25-4.49.31-1.47.06-2.82.06-4.05,0-1.17-.06-2.02-.45-2.55-1.19-.5-.73-.68-1.66-.53-2.77,1.53.15,3.18.23,4.97.26,1.79,0,3.58-.04,5.37-.13,1.79-.09,3.51-.21,5.15-.35,1.64-.15,3.08-.32,4.31-.53.41-.21.97-.4,1.67-.57.7-.21,1.35-.31,1.94-.31.12,0,.29.06.53.18.23.12.46.25.66.4.23.15.44.31.62.48.18.15.26.28.26.4,0,.23-.04.57-.13,1.01-.06.44-.15.81-.26,1.1-.06.73-.12,1.53-.18,2.38-.06.85-.15,1.7-.26,2.55-.09.82-.19,1.61-.31,2.38-.12.76-.23,1.44-.35,2.02-.18.67-.44,1.25-.79,1.72,1.23-.15,2.42-.31,3.56-.48,1.17-.18,2.29-.35,3.34-.53.15.29.2.63.18,1.01,0,.35-.09.7-.26,1.06-.15.32-.38.63-.7.92-.32.26-.73.44-1.23.53ZM540.23,6.16c-.09-.09-.25-.19-.48-.31-.23-.15-.51-.29-.84-.44-.32-.18-.67-.32-1.06-.44-.35-.15-.69-.26-1.01-.35.38-.23.84-.45,1.36-.66.53-.23,1.07-.44,1.63-.62.59-.18,1.16-.32,1.72-.44.56-.12,1.06-.18,1.5-.18.21,0,.47.06.79.18s.63.26.92.44c.32.18.59.37.79.57s.31.38.31.53-.04.38-.13.7c-.09.29-.21.63-.35,1.01,1.14.26,2.17.66,3.08,1.19.94.53,1.73,1.16,2.38,1.89.64.73,1.14,1.54,1.5,2.42.35.85.53,1.76.53,2.73,0,2.93-.84,5.19-2.51,6.78-1.67,1.55-3.98,2.33-6.91,2.33-1.47,0-2.79-.22-3.96-.66-1.17-.44-2.18-1.06-3.04-1.85-.85-.79-1.51-1.73-1.98-2.82-.44-1.09-.66-2.26-.66-3.52,0-1.11.16-2.13.48-3.04.35-.91.82-1.7,1.41-2.38.59-.7,1.26-1.31,2.02-1.8.79-.53,1.63-.95,2.51-1.28ZM563.42,3.92c.09,1.94.15,3.99.18,6.16.06,2.17.06,4.36,0,6.56-.03,2.2-.12,4.37-.26,6.51-.15,2.11-.35,4.06-.62,5.85-.24,1.58-.72,2.7-1.45,3.34-.73.65-1.57.82-2.51.53.23-2.46.4-5,.48-7.61.12-2.61.18-5.18.18-7.7s-.06-4.94-.18-7.26c-.12-2.32-.28-4.43-.48-6.34-.32-.23-.85-.54-1.58-.92-.7-.38-1.53-.76-2.46-1.14.76-.5,1.72-.94,2.86-1.32,1.17-.38,2.45-.57,3.83-.57.15,0,.35.06.62.18.29.09.57.21.84.35.29.15.54.31.75.48.21.15.31.28.31.4,0,.29-.06.7-.18,1.23-.09.53-.19.95-.31,1.28ZM542.56,30.8c-.32-.23-.76-.51-1.32-.84-.53-.35-1.23-.69-2.11-1.01.7-.5,1.64-.92,2.82-1.28,1.17-.35,2.33-.53,3.48-.53.18,0,.4.06.66.18.26.09.51.21.75.35.26.15.48.31.66.48.2.15.31.28.31.4,0,.29-.04.65-.13,1.06-.06.41-.12.79-.18,1.14.23,1,.44,2.16.62,3.48.18,1.32.31,2.54.4,3.65.94.09,2.1.1,3.48.04,1.41-.03,2.84-.12,4.31-.26,1.5-.15,2.93-.34,4.31-.57,1.41-.26,2.6-.59,3.56-.97.29.35.51.73.66,1.14.15.41.19.81.13,1.19-.06.38-.23.73-.53,1.06-.26.32-.66.56-1.19.7-.94.29-2.13.53-3.56.7-1.41.21-2.89.35-4.44.44s-3.09.12-4.62.09c-1.5-.03-2.8-.13-3.92-.31-.67-.09-1.19-.26-1.54-.53-.35-.23-.57-.6-.66-1.1-.24-1.47-.51-2.95-.84-4.44-.29-1.53-.66-2.95-1.1-4.27ZM548.5,14.87c0-1.58-.5-2.92-1.5-4-.97-1.09-2.38-1.82-4.22-2.2-3.08,1.03-4.62,3.14-4.62,6.34,0,1.58.47,2.86,1.41,3.83.94.97,2.18,1.45,3.74,1.45,1.64,0,2.92-.5,3.83-1.5.91-1.03,1.36-2.33,1.36-3.92Z"/>
  <path class="st0" d="M29.25,118.9c-.37-.37-1.05-.8-2.03-1.3-.99-.62-2.16-1.23-3.52-1.85-1.36-.74-2.84-1.36-4.44-1.85-1.48-.62-2.9-1.11-4.26-1.48,1.6-.99,3.51-1.91,5.74-2.77,2.22-.99,4.5-1.85,6.84-2.59,2.47-.74,4.87-1.36,7.22-1.85,2.34-.49,4.44-.74,6.29-.74.86,0,1.97.25,3.33.74,1.36.49,2.65,1.11,3.89,1.85,1.36.74,2.47,1.54,3.33,2.4.86.86,1.3,1.6,1.3,2.22s-.19,1.6-.56,2.96c-.37,1.23-.86,2.65-1.48,4.26,4.81,1.11,9.06,2.77,12.76,4.99,3.82,2.22,7.09,4.87,9.81,7.95,2.71,3.08,4.75,6.48,6.1,10.18,1.48,3.58,2.22,7.4,2.22,11.47,0,12.33-3.45,21.83-10.36,28.49-6.78,6.54-16.34,9.8-28.67,9.8-6.17,0-11.72-.93-16.65-2.77-4.81-1.85-9-4.44-12.58-7.77-3.45-3.33-6.1-7.28-7.95-11.84-1.85-4.56-2.77-9.5-2.77-14.8,0-4.69.68-8.94,2.04-12.76,1.36-3.82,3.21-7.15,5.55-9.99,2.47-2.96,5.3-5.49,8.51-7.58,3.21-2.22,6.66-4.01,10.36-5.36ZM123.6,109.46c.25,6.66.43,13.63.56,20.9.25,7.15.37,14.49.37,22.01,3.7-.25,7.34-.55,10.92-.93,3.7-.49,7.65-1.05,11.84-1.66.62,1.23.93,2.71.93,4.44,0,1.6-.31,3.21-.93,4.81-.62,1.6-1.66,3.08-3.15,4.44-1.48,1.23-3.39,2.04-5.74,2.4-2.22.49-4.5.86-6.85,1.11-2.34.12-4.81.25-7.4.37-.25,8.51-.68,16.84-1.29,24.98-.62,8.02-1.42,15.54-2.4,22.57-.99,6.66-3.02,11.35-6.11,14.06-3.08,2.71-6.6,3.45-10.54,2.22.99-10.36,1.67-21.03,2.03-32,.49-10.98.74-21.77.74-32.38s-.25-20.78-.74-30.53c-.49-9.74-1.17-18.62-2.03-26.64-1.36-.99-3.51-2.28-6.47-3.89-2.96-1.6-6.41-3.21-10.36-4.81,3.21-2.1,7.22-3.95,12.03-5.55,4.93-1.6,10.3-2.4,16.09-2.4.62,0,1.48.25,2.59.74,1.23.37,2.4.86,3.51,1.48,1.23.62,2.28,1.29,3.14,2.03.86.62,1.3,1.17,1.3,1.67,0,1.23-.25,2.96-.74,5.18-.37,2.22-.8,4.01-1.29,5.36ZM37.76,222.5c-1.36-.99-3.21-2.16-5.55-3.51-2.22-1.48-5.18-2.9-8.88-4.26,2.96-2.1,6.91-3.88,11.84-5.37,4.93-1.48,9.81-2.22,14.62-2.22.74,0,1.67.25,2.77.74,1.11.37,2.16.86,3.15,1.48,1.11.62,2.03,1.3,2.78,2.04.86.62,1.29,1.17,1.29,1.67,0,1.23-.18,2.71-.55,4.44-.25,1.73-.49,3.33-.74,4.81.99,4.19,1.85,9.07,2.59,14.61.74,5.55,1.29,10.67,1.67,15.36,3.95.37,8.76.43,14.43.18,5.8-.12,11.72-.49,17.76-1.11,6.17-.62,12.09-1.42,17.76-2.4,5.8-1.11,10.73-2.47,14.8-4.07,1.23,1.48,2.16,3.08,2.77,4.81.62,1.73.8,3.39.56,5-.25,1.6-.99,3.08-2.22,4.44-1.11,1.36-2.78,2.34-5,2.96-3.95,1.23-8.88,2.22-14.8,2.96-5.8.86-11.9,1.48-18.31,1.85-6.29.37-12.58.49-18.87.37-6.29-.12-11.78-.55-16.47-1.29-2.84-.37-4.99-1.11-6.47-2.22-1.48-.99-2.4-2.53-2.78-4.62-.99-6.17-2.16-12.4-3.51-18.69-1.23-6.41-2.77-12.39-4.62-17.94ZM63.48,155.53c0-6.66-1.97-12.27-5.92-16.84-3.82-4.56-9.62-7.65-17.39-9.25-6.66,2.22-11.53,5.49-14.62,9.81-2.96,4.32-4.44,9.93-4.44,16.83s1.85,12.03,5.55,16.1c3.82,4.07,9,6.11,15.54,6.11,6.91,0,12.15-2.1,15.72-6.29,3.7-4.32,5.55-9.8,5.55-16.46ZM344.47,183.09c-6.78,1.36-14.37,2.59-22.76,3.7-8.39,1.11-17.14,2.16-26.27,3.15.12,2.71.12,5.12,0,7.21,0,2.1-.12,4.32-.37,6.66-.12,1.11-.31,2.16-.55,3.14-.25.99-.49,1.91-.74,2.78,5.18.62,9.74,1.85,13.69,3.7,4.07,1.73,7.4,3.95,9.99,6.66,2.71,2.59,4.75,5.55,6.1,8.88,1.48,3.33,2.22,6.85,2.22,10.55,0,5.18-1.05,9.68-3.14,13.5-1.97,3.95-4.81,7.21-8.51,9.8-3.58,2.71-7.77,4.69-12.58,5.92-4.81,1.36-9.99,2.04-15.54,2.04s-10.79-.74-15.73-2.22c-4.81-1.36-9-3.33-12.58-5.92-3.58-2.59-6.41-5.73-8.51-9.43-2.1-3.58-3.15-7.58-3.15-12.02,0-8.14,2.71-15.05,8.14-20.72,5.43-5.67,13.07-9.19,22.94-10.54-.12-3.21-.31-6.29-.55-9.25-.12-2.96-.31-5.92-.55-8.88-9.5.74-18.68,1.29-27.57,1.67-8.76.37-16.65.43-23.68.18-2.47,0-4.56-.49-6.29-1.48-1.73-1.11-3.08-2.47-4.07-4.07-.99-1.73-1.67-3.58-2.04-5.55-.37-1.97-.37-3.88,0-5.74,11.35.62,23.25.86,35.71.74,12.46-.25,24.85-.8,37.19-1.66,12.46-.86,24.48-1.91,36.07-3.15,11.59-1.36,22.14-2.84,31.64-4.44.62,1.23.86,2.65.74,4.26,0,1.48-.37,2.96-1.11,4.44-.62,1.36-1.6,2.65-2.96,3.89-1.36,1.11-3.08,1.85-5.18,2.22ZM321.71,115.75c-3.21.62-6.91,1.23-11.1,1.85-4.19.49-8.63.99-13.32,1.48,1.36,1.11,2.04,2.22,2.04,3.33-.25,2.1-.99,3.88-2.22,5.36-1.23,1.36-3.08,3.08-5.55,5.18l-.37.37c3.82.86,7.83,1.79,12.02,2.77,4.19.99,8.14,2.04,11.84,3.15,3.82,1.11,7.34,2.22,10.55,3.33,3.21.99,5.74,1.91,7.58,2.77,2.1.99,3.58,2.34,4.44,4.07.99,1.73,1.36,3.58,1.11,5.55-.25,1.85-1.17,3.82-2.77,5.92-1.48,1.97-3.64,3.7-6.48,5.18-2.84-2.1-6.17-4.26-9.99-6.48-3.82-2.22-7.89-4.38-12.21-6.47-4.32-2.22-8.82-4.19-13.51-5.92-4.56-1.85-9.07-3.45-13.51-4.81-5.43,4.32-11.47,8.69-18.13,13.13-6.66,4.32-14.37,8.88-23.13,13.69-4.07,2.22-7.65,3.08-10.73,2.59-2.96-.62-5.74-2.47-8.32-5.55,12.09-8.02,22.88-15.6,32.38-22.75,9.62-7.15,17.21-14,22.75-20.54l-2.22-2.04c-6.29.37-12.15.62-17.57.74-5.43.12-9.74.12-12.95,0-2.47,0-4.69-.49-6.66-1.48-1.85-1.11-3.39-2.4-4.62-3.89-1.11-1.6-1.91-3.33-2.4-5.18-.37-1.85-.25-3.7.37-5.55,6.04.62,13.44.99,22.2,1.11,8.76,0,17.82-.25,27.2-.74,9.37-.49,18.5-1.23,27.38-2.22,8.88-1.11,16.47-2.4,22.76-3.88.62,1.36,1.05,2.84,1.3,4.44.25,1.6.12,3.21-.37,4.81-.37,1.48-1.17,2.84-2.4,4.07-1.23,1.23-3.02,2.1-5.37,2.59ZM306.91,239.52c0-4.69-1.85-8.76-5.55-12.21-3.7-3.58-8.94-5.37-15.73-5.37s-11.96,1.85-15.54,5.55c-3.45,3.7-5.18,8.14-5.18,13.32,0,2.59.55,4.99,1.67,7.21,1.11,2.1,2.65,3.88,4.62,5.37,1.97,1.48,4.19,2.59,6.66,3.33,2.47.86,5.12,1.29,7.96,1.29,6.29,0,11.35-1.6,15.17-4.81,3.95-3.21,5.92-7.77,5.92-13.69ZM559.05,181.98c-8.02,1.6-17.27,3.08-27.75,4.44-10.36,1.36-21.03,2.53-32.01,3.51-10.85.86-21.52,1.54-32.01,2.03-10.48.49-19.79.68-27.93.56-2.47,0-4.56-.49-6.29-1.48-1.73-1.11-3.08-2.47-4.07-4.07-.99-1.73-1.67-3.58-2.04-5.55-.37-1.97-.37-3.88,0-5.74,14.92.86,30.59,1.05,46.99.56,16.4-.62,32.44-1.67,48.1-3.15,1.36-9.99,2.28-19.12,2.78-27.38.49-8.39.55-16.28.18-23.68-4.81.74-10.3,1.54-16.47,2.4-6.04.74-12.27,1.42-18.68,2.04-6.29.62-12.58,1.05-18.87,1.29-6.17.25-11.84.25-17.02,0-4.93-.25-8.51-1.97-10.73-5.18-2.1-3.21-2.84-7.15-2.22-11.84,6.41.62,13.38.99,20.9,1.11,7.52,0,15.05-.18,22.57-.56,7.52-.37,14.74-.86,21.64-1.48,6.91-.62,12.95-1.36,18.13-2.22,1.73-.86,4.07-1.67,7.03-2.4,2.96-.86,5.67-1.29,8.14-1.29.49,0,1.23.25,2.22.74.99.49,1.91,1.05,2.78,1.67.99.62,1.85,1.29,2.59,2.03.74.62,1.11,1.17,1.11,1.67,0,.99-.18,2.4-.55,4.26-.25,1.85-.62,3.39-1.11,4.62-.49,8.14-1.36,16.53-2.59,25.16-1.11,8.63-2.41,16.34-3.89,23.12-.37,1.23-.86,2.65-1.48,4.26,5.18-.62,10.17-1.29,14.98-2.04,4.93-.74,9.62-1.48,14.06-2.22.62,1.23.86,2.65.74,4.26,0,1.48-.37,2.96-1.11,4.44-.62,1.36-1.6,2.65-2.96,3.88-1.36,1.11-3.08,1.85-5.18,2.22ZM456.19,219.91c-1.36-.99-3.21-2.16-5.55-3.51-2.22-1.36-5.18-2.78-8.88-4.26,2.96-2.1,6.85-3.82,11.65-5.18,4.93-1.48,9.87-2.22,14.8-2.22.62,0,1.48.25,2.59.74,1.11.37,2.22.86,3.33,1.48,1.11.62,2.04,1.3,2.78,2.04.86.62,1.29,1.17,1.29,1.67,0,1.23-.18,2.71-.55,4.44-.25,1.73-.55,3.27-.93,4.62.49,2.34.99,5,1.48,7.96.49,2.84.93,5.74,1.3,8.7.49,2.96.86,5.86,1.11,8.69.37,2.71.62,5.12.74,7.22,3.95.37,8.88.43,14.8.18,6.04-.12,12.27-.49,18.68-1.11,6.41-.62,12.58-1.42,18.5-2.4,6.04-1.11,11.1-2.47,15.17-4.07,1.23,1.48,2.16,3.08,2.77,4.81.62,1.73.8,3.39.55,5-.25,1.6-.99,3.08-2.22,4.44-1.11,1.36-2.78,2.34-4.99,2.96-3.95,1.23-9,2.22-15.17,2.96-6.04.86-12.4,1.48-19.06,1.85s-13.26.49-19.8.37c-6.41-.12-11.96-.55-16.65-1.29-2.84-.37-5.06-1.11-6.66-2.22-1.48-.99-2.34-2.53-2.59-4.62-.86-5.8-2.04-12.27-3.51-19.43-1.48-7.28-3.15-13.88-4.99-19.79Z"/>
</svg>