<svg width="58" height="58" viewBox="0 0 58 58" fill="none" xmlns="http://www.w3.org/2000/svg">
<rect x="2" y="2" width="54" height="54" rx="27" fill="white"/>
<rect x="2" y="2" width="54" height="54" rx="27" stroke="#7076B1" stroke-width="4"/>
<g clip-path="url(#clip0_268_970)">
<path d="M45.9999 29.0771C45.9796 32.1067 44.8931 34.7208 42.7673 36.8522C42.6525 36.9662 42.5243 37.0935 42.3691 37.2008C42.1531 37.3482 41.9169 37.4219 41.6807 37.4219C41.3635 37.4219 41.0531 37.2879 40.8304 37.0332C40.4794 36.6377 40.3985 35.9541 40.8574 35.4782C40.9316 35.3977 40.9991 35.3307 41.0733 35.2704C42.4028 34.0438 43.2464 32.4821 43.5704 30.612C43.9753 28.2929 43.5029 26.1145 42.1801 24.1238C41.8832 23.6814 41.539 23.2725 41.1476 22.9106C41.0801 22.8436 41.0058 22.7765 40.9384 22.7095L40.8506 22.6291C40.4052 22.1934 40.4862 21.5097 40.8169 21.1277C41.1881 20.6987 41.8022 20.5915 42.2746 20.8596C42.4501 20.9601 42.5918 21.0875 42.7133 21.2081C44.4342 22.8838 45.4937 24.9348 45.8717 27.321C45.9594 27.8907 46.0066 28.4738 45.9999 29.0637V29.0771ZM35.5731 16.0671C35.5596 18.6477 35.5596 21.2215 35.5596 23.8021V28.9765V31.9056V41.6715C35.5596 42.0468 35.5461 42.4423 35.3842 42.8444C35.0872 43.575 34.4933 44.138 33.751 44.3793C33.4878 44.4665 33.2178 44.5067 32.9479 44.5067C32.4552 44.5067 31.9693 44.3659 31.5374 44.1045C30.8558 43.6823 30.1742 43.2466 29.4993 42.8042C29.1146 42.5562 28.7299 42.3015 28.3385 42.0602L25.3488 40.1566C23.5402 39.0038 21.7315 37.8509 19.9229 36.6913C19.8216 36.6243 19.7137 36.6042 19.5922 36.5975C18.9443 36.5975 18.5934 36.5975 18.2559 36.5975C17.8983 36.5975 17.5541 36.5975 16.8792 36.5975H16.8657C15.9884 36.5975 15.1988 36.4031 14.5172 36.0211C12.884 35.0894 12.0404 33.7221 12.0134 31.9391C11.9864 29.8546 11.9999 27.8036 12.0134 26.2552C12.0336 24.2444 13.2079 22.5419 15.0841 21.8181C15.597 21.6237 16.1234 21.5231 16.6498 21.5231H17.6351C18.1142 21.5231 18.4247 21.5231 19.2817 21.5231C19.6057 21.5164 19.8351 21.4561 20.0848 21.2952C21.3064 20.4842 22.5414 19.6933 23.7764 18.9024L31.3754 14.0228C31.6589 13.8351 32.0571 13.6139 32.543 13.5335C33.3123 13.4062 34.0614 13.6139 34.6418 14.1099C35.2222 14.6059 35.5731 15.3365 35.5664 16.0671H35.5731ZM21.1376 34.828V34.8749C21.5628 35.1162 21.9475 35.3508 22.3254 35.5921L32.4957 42.1004C32.543 42.1272 32.5902 42.1541 32.6307 42.1809L32.7792 42.268C32.8804 42.3283 33.0356 42.3216 33.1638 42.2546C33.2313 42.2211 33.3798 42.1138 33.3866 41.9128V41.0883L33.3933 17.1128C33.3933 16.9988 33.3933 16.8849 33.3933 16.7709C33.3933 16.5363 33.3798 16.3084 33.3933 16.0738C33.4 15.9532 33.2853 15.7923 33.1368 15.7119C33.0829 15.6851 33.0154 15.6583 32.9411 15.6583C32.8804 15.6583 32.8197 15.6717 32.7589 15.7186C32.7117 15.7521 32.6577 15.7856 32.6037 15.8191L31.4632 16.5497C30.5993 17.1061 29.7355 17.6557 28.8717 18.212L26.4489 19.7737C24.728 20.8797 23.007 21.9923 21.2794 23.0916C21.1444 23.1787 21.1309 23.2122 21.1309 23.3396C21.1376 26.4161 21.1376 29.4926 21.1376 32.5625V34.828ZM18.9443 23.6479C18.4314 23.6479 18.1682 23.6546 17.8915 23.6613C17.6081 23.6613 17.3179 23.668 16.7307 23.6747C16.1031 23.6747 15.5497 23.9093 15.0166 24.3785C14.4497 24.8879 14.173 25.5179 14.173 26.3156C14.173 28.1588 14.173 29.9953 14.173 31.8319C14.173 32.0598 14.2 32.281 14.2607 32.4753C14.5914 33.6148 15.597 34.3923 16.7645 34.4124C17.5406 34.4258 17.7903 34.4258 18.1952 34.4191H18.9376V27.1869V23.6412L18.9443 23.6479ZM19.2008 34.828V34.4258C19.2008 34.4258 19.1468 34.4258 19.113 34.4459L19.2008 34.828ZM41.7684 29.191C41.7684 27.951 41.5255 26.8987 41.0126 25.8665C40.6347 25.1091 40.142 24.4522 39.5414 23.916C39.042 23.4736 38.4008 23.487 37.9352 23.9562C37.4965 24.3986 37.483 25.0219 37.9014 25.5179C37.9622 25.5917 38.0297 25.6654 38.0971 25.7324C38.1646 25.7995 38.2254 25.8732 38.2929 25.9469C39.8788 27.8505 39.8248 30.6053 38.1646 32.3614L38.0971 32.4284C38.0229 32.5089 37.9419 32.5893 37.8744 32.6764C37.4965 33.1389 37.5168 33.7019 37.9217 34.1443C38.1579 34.399 38.4616 34.5331 38.772 34.5331C39.0015 34.5331 39.2309 34.4593 39.4334 34.3186C39.5549 34.2315 39.6629 34.1309 39.7641 34.0237C41.0463 32.6965 41.7415 31.0276 41.7752 29.1977L41.7684 29.191Z" fill="#7076B1"/>
</g>
<defs>
<clipPath id="clip0_268_970">
<rect width="34" height="31" fill="white" transform="translate(12 13.5)"/>
</clipPath>
</defs>
</svg>
